<svg xmlns="http://www.w3.org/2000/svg" xmlns:xlink="http://www.w3.org/1999/xlink" width="1280" height="720" viewBox="0 0 1280 720">
  <defs>
    <clipPath id="clip-print_bg">
      <rect width="1280" height="720"/>
    </clipPath>
  </defs>
  <g id="print_bg" clip-path="url(#clip-print_bg)">
    <rect width="1280" height="720" fill="#fff"/>
    <g id="Group_3" data-name="Group 3">
      <g id="Group_1" data-name="Group 1" transform="translate(-143 -67)">
        <text id="家庭" transform="translate(143 111)" font-size="41" font-family="YuGothicUI-Semibold, Yu Gothic UI" font-weight="600"><tspan x="0" y="0">家庭</tspan></text>
        <text id="料理" transform="translate(288 111)" font-size="41" font-family="YuGothicUI-Semibold, Yu Gothic UI" font-weight="600"><tspan x="0" y="0">料理</tspan></text>
        <g id="drawing-1" transform="translate(230.795 73.395)">
          <path id="Path_1" data-name="Path 1" d="M282.411,79.8a27.931,27.931,0,0,1-5.064-.91L277,78.8l-.036-2.186-.53-.207a13.451,13.451,0,0,1-4.731-3.125,24.338,24.338,0,0,1-4.479-6.781,11.112,11.112,0,0,1-.822-2c-.129-.451-.365-1.227-.525-1.725a5.238,5.238,0,0,1-.1-3.794A7.95,7.95,0,0,1,269.752,55a11.3,11.3,0,0,1,2.266-.867c.824-.2.828-.207.877-.572a2.191,2.191,0,0,1,1.156-1.531,10.477,10.477,0,0,1,2.814-.658c2.049-.293,1.978-.273,2.171-.637a3.031,3.031,0,0,1,2.721-1.461,4.636,4.636,0,0,1,1.62.313l.505.174.347-.154a6.8,6.8,0,0,1,1.854-.508,3.3,3.3,0,0,1,2.631,1.045,16.092,16.092,0,0,0,1.969,1.6c.252.148.31.16.383.083.047-.05,2.35-3.309,5.118-7.243s5.059-7.181,5.093-7.217c.123-.132.729-.071,1.12.112a2.706,2.706,0,0,1,1.2,1.145c.107.28.106.3-.017.469-2.313,3.188-9.99,13.926-9.99,13.973a4.154,4.154,0,0,0,1.41.53,9.805,9.805,0,0,1,.961.322,2.938,2.938,0,0,1,1.045.977,3.06,3.06,0,0,0,.992.748,16.418,16.418,0,0,1,1.84,1.164l.38.288,2.309-1.35c1.27-.743,4.92-2.883,8.112-4.756l5.8-3.405.191.108a3.826,3.826,0,0,1,.543.448,2.1,2.1,0,0,1,.7,1.519l0,.418-7.9,4.471c-4.346,2.459-7.939,4.494-7.983,4.524-.062.04-.05.113.049.307a4.746,4.746,0,0,1,.426,2.363,4.049,4.049,0,0,1-.422,2.226,10.14,10.14,0,0,0-.362,1.022,22.138,22.138,0,0,1-5.1,8.478,11.988,11.988,0,0,1-4.139,2.907l-.894.425,0,2.186-.974.238a24.234,24.234,0,0,1-6.3.616c-.884-.006-1.725-.02-1.869-.032Z" transform="translate(-265.475 -37.295)"/>
        </g>
      </g>
      <g id="Group_1-2" data-name="Group 1" transform="translate(136 -67)">
        <text id="家庭-2" data-name="家庭" transform="translate(143 111)" font-size="41" font-family="YuGothicUI-Semibold, Yu Gothic UI" font-weight="600"><tspan x="0" y="0">家庭</tspan></text>
        <text id="料理-2" data-name="料理" transform="translate(225 111)" font-size="41" font-family="YuGothicUI-Semibold, Yu Gothic UI" font-weight="600"><tspan x="0" y="0">料理</tspan></text>
      </g>
      <g id="Group_1-3" data-name="Group 1" transform="translate(136 7)">
        <text id="家庭-3" data-name="家庭" transform="translate(143 111)" font-size="41" font-family="YuGothicUI-Semibold, Yu Gothic UI" font-weight="600"><tspan x="0" y="0">家庭</tspan></text>
        <text id="料理-3" data-name="料理" transform="translate(225 111)" font-size="41" font-family="YuGothicUI-Semibold, Yu Gothic UI" font-weight="600"><tspan x="0" y="0">料理</tspan></text>
      </g>
      <g id="Group_1-4" data-name="Group 1" transform="translate(136 81)">
        <text id="家庭-4" data-name="家庭" transform="translate(143 111)" font-size="41" font-family="YuGothicUI-Semibold, Yu Gothic UI" font-weight="600"><tspan x="0" y="0">家庭</tspan></text>
        <text id="料理-4" data-name="料理" transform="translate(225 111)" font-size="41" font-family="YuGothicUI-Semibold, Yu Gothic UI" font-weight="600"><tspan x="0" y="0">料理</tspan></text>
      </g>
      <g id="Group_1-5" data-name="Group 1" transform="translate(136 155)">
        <text id="家庭-5" data-name="家庭" transform="translate(143 111)" font-size="41" font-family="YuGothicUI-Semibold, Yu Gothic UI" font-weight="600"><tspan x="0" y="0">家庭</tspan></text>
        <text id="料理-5" data-name="料理" transform="translate(225 111)" font-size="41" font-family="YuGothicUI-Semibold, Yu Gothic UI" font-weight="600"><tspan x="0" y="0">料理</tspan></text>
      </g>
      <g id="Group_1-6" data-name="Group 1" transform="translate(136 229)">
        <text id="家庭-6" data-name="家庭" transform="translate(143 111)" font-size="41" font-family="YuGothicUI-Semibold, Yu Gothic UI" font-weight="600"><tspan x="0" y="0">家庭</tspan></text>
        <text id="料理-6" data-name="料理" transform="translate(225 111)" font-size="41" font-family="YuGothicUI-Semibold, Yu Gothic UI" font-weight="600"><tspan x="0" y="0">料理</tspan></text>
      </g>
      <g id="Group_1-7" data-name="Group 1" transform="translate(136 303)">
        <text id="家庭-7" data-name="家庭" transform="translate(143 111)" font-size="41" font-family="YuGothicUI-Semibold, Yu Gothic UI" font-weight="600"><tspan x="0" y="0">家庭</tspan></text>
        <text id="料理-7" data-name="料理" transform="translate(225 111)" font-size="41" font-family="YuGothicUI-Semibold, Yu Gothic UI" font-weight="600"><tspan x="0" y="0">料理</tspan></text>
      </g>
      <g id="Group_1-8" data-name="Group 1" transform="translate(136 377)">
        <text id="家庭-8" data-name="家庭" transform="translate(143 111)" font-size="41" font-family="YuGothicUI-Semibold, Yu Gothic UI" font-weight="600"><tspan x="0" y="0">家庭</tspan></text>
        <text id="料理-8" data-name="料理" transform="translate(225 111)" font-size="41" font-family="YuGothicUI-Semibold, Yu Gothic UI" font-weight="600"><tspan x="0" y="0">料理</tspan></text>
      </g>
      <g id="Group_1-9" data-name="Group 1" transform="translate(136 451)">
        <text id="家庭-9" data-name="家庭" transform="translate(143 111)" font-size="41" font-family="YuGothicUI-Semibold, Yu Gothic UI" font-weight="600"><tspan x="0" y="0">家庭</tspan></text>
        <text id="料理-9" data-name="料理" transform="translate(225 111)" font-size="41" font-family="YuGothicUI-Semibold, Yu Gothic UI" font-weight="600"><tspan x="0" y="0">料理</tspan></text>
      </g>
      <g id="Group_1-10" data-name="Group 1" transform="translate(136 525)">
        <text id="家庭-10" data-name="家庭" transform="translate(143 111)" font-size="41" font-family="YuGothicUI-Semibold, Yu Gothic UI" font-weight="600"><tspan x="0" y="0">家庭</tspan></text>
        <text id="料理-10" data-name="料理" transform="translate(225 111)" font-size="41" font-family="YuGothicUI-Semibold, Yu Gothic UI" font-weight="600"><tspan x="0" y="0">料理</tspan></text>
      </g>
      <g id="Group_1-11" data-name="Group 1" transform="translate(136 599)">
        <text id="家庭-11" data-name="家庭" transform="translate(143 111)" font-size="41" font-family="YuGothicUI-Semibold, Yu Gothic UI" font-weight="600"><tspan x="0" y="0">家庭</tspan></text>
        <text id="料理-11" data-name="料理" transform="translate(225 111)" font-size="41" font-family="YuGothicUI-Semibold, Yu Gothic UI" font-weight="600"><tspan x="0" y="0">料理</tspan></text>
      </g>
      <g id="Group_1-12" data-name="Group 1" transform="translate(351 -67)">
        <text id="家庭-12" data-name="家庭" transform="translate(143 111)" font-size="41" font-family="YuGothicUI-Semibold, Yu Gothic UI" font-weight="600"><tspan x="0" y="0">家庭</tspan></text>
        <text id="料理-12" data-name="料理" transform="translate(288 111)" font-size="41" font-family="YuGothicUI-Semibold, Yu Gothic UI" font-weight="600"><tspan x="0" y="0">料理</tspan></text>
        <g id="drawing-1-2" data-name="drawing-1" transform="translate(230.795 73.395)">
          <path id="Path_1-2" data-name="Path 1" d="M282.411,79.8a27.931,27.931,0,0,1-5.064-.91L277,78.8l-.036-2.186-.53-.207a13.451,13.451,0,0,1-4.731-3.125,24.338,24.338,0,0,1-4.479-6.781,11.112,11.112,0,0,1-.822-2c-.129-.451-.365-1.227-.525-1.725a5.238,5.238,0,0,1-.1-3.794A7.95,7.95,0,0,1,269.752,55a11.3,11.3,0,0,1,2.266-.867c.824-.2.828-.207.877-.572a2.191,2.191,0,0,1,1.156-1.531,10.477,10.477,0,0,1,2.814-.658c2.049-.293,1.978-.273,2.171-.637a3.031,3.031,0,0,1,2.721-1.461,4.636,4.636,0,0,1,1.62.313l.505.174.347-.154a6.8,6.8,0,0,1,1.854-.508,3.3,3.3,0,0,1,2.631,1.045,16.092,16.092,0,0,0,1.969,1.6c.252.148.31.16.383.083.047-.05,2.35-3.309,5.118-7.243s5.059-7.181,5.093-7.217c.123-.132.729-.071,1.12.112a2.706,2.706,0,0,1,1.2,1.145c.107.28.106.3-.017.469-2.313,3.188-9.99,13.926-9.99,13.973a4.154,4.154,0,0,0,1.41.53,9.805,9.805,0,0,1,.961.322,2.938,2.938,0,0,1,1.045.977,3.06,3.06,0,0,0,.992.748,16.418,16.418,0,0,1,1.84,1.164l.38.288,2.309-1.35c1.27-.743,4.92-2.883,8.112-4.756l5.8-3.405.191.108a3.826,3.826,0,0,1,.543.448,2.1,2.1,0,0,1,.7,1.519l0,.418-7.9,4.471c-4.346,2.459-7.939,4.494-7.983,4.524-.062.04-.05.113.049.307a4.746,4.746,0,0,1,.426,2.363,4.049,4.049,0,0,1-.422,2.226,10.14,10.14,0,0,0-.362,1.022,22.138,22.138,0,0,1-5.1,8.478,11.988,11.988,0,0,1-4.139,2.907l-.894.425,0,2.186-.974.238a24.234,24.234,0,0,1-6.3.616c-.884-.006-1.725-.02-1.869-.032Z" transform="translate(-265.475 -37.295)"/>
        </g>
      </g>
      <g id="Group_1-13" data-name="Group 1" transform="translate(845 -67)">
        <text id="家庭-13" data-name="家庭" transform="translate(143 111)" font-size="41" font-family="YuGothicUI-Semibold, Yu Gothic UI" font-weight="600"><tspan x="0" y="0">家庭</tspan></text>
        <text id="料理-13" data-name="料理" transform="translate(288 111)" font-size="41" font-family="YuGothicUI-Semibold, Yu Gothic UI" font-weight="600"><tspan x="0" y="0">料理</tspan></text>
        <g id="drawing-1-3" data-name="drawing-1" transform="translate(230.795 73.395)">
          <path id="Path_1-3" data-name="Path 1" d="M282.411,79.8a27.931,27.931,0,0,1-5.064-.91L277,78.8l-.036-2.186-.53-.207a13.451,13.451,0,0,1-4.731-3.125,24.338,24.338,0,0,1-4.479-6.781,11.112,11.112,0,0,1-.822-2c-.129-.451-.365-1.227-.525-1.725a5.238,5.238,0,0,1-.1-3.794A7.95,7.95,0,0,1,269.752,55a11.3,11.3,0,0,1,2.266-.867c.824-.2.828-.207.877-.572a2.191,2.191,0,0,1,1.156-1.531,10.477,10.477,0,0,1,2.814-.658c2.049-.293,1.978-.273,2.171-.637a3.031,3.031,0,0,1,2.721-1.461,4.636,4.636,0,0,1,1.62.313l.505.174.347-.154a6.8,6.8,0,0,1,1.854-.508,3.3,3.3,0,0,1,2.631,1.045,16.092,16.092,0,0,0,1.969,1.6c.252.148.31.16.383.083.047-.05,2.35-3.309,5.118-7.243s5.059-7.181,5.093-7.217c.123-.132.729-.071,1.12.112a2.706,2.706,0,0,1,1.2,1.145c.107.28.106.3-.017.469-2.313,3.188-9.99,13.926-9.99,13.973a4.154,4.154,0,0,0,1.41.53,9.805,9.805,0,0,1,.961.322,2.938,2.938,0,0,1,1.045.977,3.06,3.06,0,0,0,.992.748,16.418,16.418,0,0,1,1.84,1.164l.38.288,2.309-1.35c1.27-.743,4.92-2.883,8.112-4.756l5.8-3.405.191.108a3.826,3.826,0,0,1,.543.448,2.1,2.1,0,0,1,.7,1.519l0,.418-7.9,4.471c-4.346,2.459-7.939,4.494-7.983,4.524-.062.04-.05.113.049.307a4.746,4.746,0,0,1,.426,2.363,4.049,4.049,0,0,1-.422,2.226,10.14,10.14,0,0,0-.362,1.022,22.138,22.138,0,0,1-5.1,8.478,11.988,11.988,0,0,1-4.139,2.907l-.894.425,0,2.186-.974.238a24.234,24.234,0,0,1-6.3.616c-.884-.006-1.725-.02-1.869-.032Z" transform="translate(-265.475 -37.295)"/>
        </g>
      </g>
      <g id="Group_1-14" data-name="Group 1" transform="translate(1092 -67)">
        <text id="家庭-14" data-name="家庭" transform="translate(143 111)" font-size="41" font-family="YuGothicUI-Semibold, Yu Gothic UI" font-weight="600"><tspan x="0" y="0">家庭</tspan></text>
        <text id="料理-14" data-name="料理" transform="translate(288 111)" font-size="41" font-family="YuGothicUI-Semibold, Yu Gothic UI" font-weight="600"><tspan x="0" y="0">料理</tspan></text>
        <g id="drawing-1-4" data-name="drawing-1" transform="translate(230.795 73.395)">
          <path id="Path_1-4" data-name="Path 1" d="M282.411,79.8a27.931,27.931,0,0,1-5.064-.91L277,78.8l-.036-2.186-.53-.207a13.451,13.451,0,0,1-4.731-3.125,24.338,24.338,0,0,1-4.479-6.781,11.112,11.112,0,0,1-.822-2c-.129-.451-.365-1.227-.525-1.725a5.238,5.238,0,0,1-.1-3.794A7.95,7.95,0,0,1,269.752,55a11.3,11.3,0,0,1,2.266-.867c.824-.2.828-.207.877-.572a2.191,2.191,0,0,1,1.156-1.531,10.477,10.477,0,0,1,2.814-.658c2.049-.293,1.978-.273,2.171-.637a3.031,3.031,0,0,1,2.721-1.461,4.636,4.636,0,0,1,1.62.313l.505.174.347-.154a6.8,6.8,0,0,1,1.854-.508,3.3,3.3,0,0,1,2.631,1.045,16.092,16.092,0,0,0,1.969,1.6c.252.148.31.16.383.083.047-.05,2.35-3.309,5.118-7.243s5.059-7.181,5.093-7.217c.123-.132.729-.071,1.12.112a2.706,2.706,0,0,1,1.2,1.145c.107.28.106.3-.017.469-2.313,3.188-9.99,13.926-9.99,13.973a4.154,4.154,0,0,0,1.41.53,9.805,9.805,0,0,1,.961.322,2.938,2.938,0,0,1,1.045.977,3.06,3.06,0,0,0,.992.748,16.418,16.418,0,0,1,1.84,1.164l.38.288,2.309-1.35c1.27-.743,4.92-2.883,8.112-4.756l5.8-3.405.191.108a3.826,3.826,0,0,1,.543.448,2.1,2.1,0,0,1,.7,1.519l0,.418-7.9,4.471c-4.346,2.459-7.939,4.494-7.983,4.524-.062.04-.05.113.049.307a4.746,4.746,0,0,1,.426,2.363,4.049,4.049,0,0,1-.422,2.226,10.14,10.14,0,0,0-.362,1.022,22.138,22.138,0,0,1-5.1,8.478,11.988,11.988,0,0,1-4.139,2.907l-.894.425,0,2.186-.974.238a24.234,24.234,0,0,1-6.3.616c-.884-.006-1.725-.02-1.869-.032Z" transform="translate(-265.475 -37.295)"/>
        </g>
      </g>
      <g id="Group_1-15" data-name="Group 1" transform="translate(-143 7)">
        <text id="家庭-15" data-name="家庭" transform="translate(143 111)" font-size="41" font-family="YuGothicUI-Semibold, Yu Gothic UI" font-weight="600"><tspan x="0" y="0">家庭</tspan></text>
        <text id="料理-15" data-name="料理" transform="translate(288 111)" font-size="41" font-family="YuGothicUI-Semibold, Yu Gothic UI" font-weight="600"><tspan x="0" y="0">料理</tspan></text>
        <g id="drawing-1-5" data-name="drawing-1" transform="translate(230.795 73.395)">
          <path id="Path_1-5" data-name="Path 1" d="M282.411,79.8a27.931,27.931,0,0,1-5.064-.91L277,78.8l-.036-2.186-.53-.207a13.451,13.451,0,0,1-4.731-3.125,24.338,24.338,0,0,1-4.479-6.781,11.112,11.112,0,0,1-.822-2c-.129-.451-.365-1.227-.525-1.725a5.238,5.238,0,0,1-.1-3.794A7.95,7.95,0,0,1,269.752,55a11.3,11.3,0,0,1,2.266-.867c.824-.2.828-.207.877-.572a2.191,2.191,0,0,1,1.156-1.531,10.477,10.477,0,0,1,2.814-.658c2.049-.293,1.978-.273,2.171-.637a3.031,3.031,0,0,1,2.721-1.461,4.636,4.636,0,0,1,1.62.313l.505.174.347-.154a6.8,6.8,0,0,1,1.854-.508,3.3,3.3,0,0,1,2.631,1.045,16.092,16.092,0,0,0,1.969,1.6c.252.148.31.16.383.083.047-.05,2.35-3.309,5.118-7.243s5.059-7.181,5.093-7.217c.123-.132.729-.071,1.12.112a2.706,2.706,0,0,1,1.2,1.145c.107.28.106.3-.017.469-2.313,3.188-9.99,13.926-9.99,13.973a4.154,4.154,0,0,0,1.41.53,9.805,9.805,0,0,1,.961.322,2.938,2.938,0,0,1,1.045.977,3.06,3.06,0,0,0,.992.748,16.418,16.418,0,0,1,1.84,1.164l.38.288,2.309-1.35c1.27-.743,4.92-2.883,8.112-4.756l5.8-3.405.191.108a3.826,3.826,0,0,1,.543.448,2.1,2.1,0,0,1,.7,1.519l0,.418-7.9,4.471c-4.346,2.459-7.939,4.494-7.983,4.524-.062.04-.05.113.049.307a4.746,4.746,0,0,1,.426,2.363,4.049,4.049,0,0,1-.422,2.226,10.14,10.14,0,0,0-.362,1.022,22.138,22.138,0,0,1-5.1,8.478,11.988,11.988,0,0,1-4.139,2.907l-.894.425,0,2.186-.974.238a24.234,24.234,0,0,1-6.3.616c-.884-.006-1.725-.02-1.869-.032Z" transform="translate(-265.475 -37.295)"/>
        </g>
      </g>
      <g id="Group_1-16" data-name="Group 1" transform="translate(351 7)">
        <text id="家庭-16" data-name="家庭" transform="translate(143 111)" font-size="41" font-family="YuGothicUI-Semibold, Yu Gothic UI" font-weight="600"><tspan x="0" y="0">家庭</tspan></text>
        <text id="料理-16" data-name="料理" transform="translate(288 111)" font-size="41" font-family="YuGothicUI-Semibold, Yu Gothic UI" font-weight="600"><tspan x="0" y="0">料理</tspan></text>
        <g id="drawing-1-6" data-name="drawing-1" transform="translate(230.795 73.395)">
          <path id="Path_1-6" data-name="Path 1" d="M282.411,79.8a27.931,27.931,0,0,1-5.064-.91L277,78.8l-.036-2.186-.53-.207a13.451,13.451,0,0,1-4.731-3.125,24.338,24.338,0,0,1-4.479-6.781,11.112,11.112,0,0,1-.822-2c-.129-.451-.365-1.227-.525-1.725a5.238,5.238,0,0,1-.1-3.794A7.95,7.95,0,0,1,269.752,55a11.3,11.3,0,0,1,2.266-.867c.824-.2.828-.207.877-.572a2.191,2.191,0,0,1,1.156-1.531,10.477,10.477,0,0,1,2.814-.658c2.049-.293,1.978-.273,2.171-.637a3.031,3.031,0,0,1,2.721-1.461,4.636,4.636,0,0,1,1.62.313l.505.174.347-.154a6.8,6.8,0,0,1,1.854-.508,3.3,3.3,0,0,1,2.631,1.045,16.092,16.092,0,0,0,1.969,1.6c.252.148.31.16.383.083.047-.05,2.35-3.309,5.118-7.243s5.059-7.181,5.093-7.217c.123-.132.729-.071,1.12.112a2.706,2.706,0,0,1,1.2,1.145c.107.28.106.3-.017.469-2.313,3.188-9.99,13.926-9.99,13.973a4.154,4.154,0,0,0,1.41.53,9.805,9.805,0,0,1,.961.322,2.938,2.938,0,0,1,1.045.977,3.06,3.06,0,0,0,.992.748,16.418,16.418,0,0,1,1.84,1.164l.38.288,2.309-1.35c1.27-.743,4.92-2.883,8.112-4.756l5.8-3.405.191.108a3.826,3.826,0,0,1,.543.448,2.1,2.1,0,0,1,.7,1.519l0,.418-7.9,4.471c-4.346,2.459-7.939,4.494-7.983,4.524-.062.04-.05.113.049.307a4.746,4.746,0,0,1,.426,2.363,4.049,4.049,0,0,1-.422,2.226,10.14,10.14,0,0,0-.362,1.022,22.138,22.138,0,0,1-5.1,8.478,11.988,11.988,0,0,1-4.139,2.907l-.894.425,0,2.186-.974.238a24.234,24.234,0,0,1-6.3.616c-.884-.006-1.725-.02-1.869-.032Z" transform="translate(-265.475 -37.295)"/>
        </g>
      </g>
      <g id="Group_1-17" data-name="Group 1" transform="translate(845 7)">
        <text id="家庭-17" data-name="家庭" transform="translate(143 111)" font-size="41" font-family="YuGothicUI-Semibold, Yu Gothic UI" font-weight="600"><tspan x="0" y="0">家庭</tspan></text>
        <text id="料理-17" data-name="料理" transform="translate(288 111)" font-size="41" font-family="YuGothicUI-Semibold, Yu Gothic UI" font-weight="600"><tspan x="0" y="0">料理</tspan></text>
        <g id="drawing-1-7" data-name="drawing-1" transform="translate(230.795 73.395)">
          <path id="Path_1-7" data-name="Path 1" d="M282.411,79.8a27.931,27.931,0,0,1-5.064-.91L277,78.8l-.036-2.186-.53-.207a13.451,13.451,0,0,1-4.731-3.125,24.338,24.338,0,0,1-4.479-6.781,11.112,11.112,0,0,1-.822-2c-.129-.451-.365-1.227-.525-1.725a5.238,5.238,0,0,1-.1-3.794A7.95,7.95,0,0,1,269.752,55a11.3,11.3,0,0,1,2.266-.867c.824-.2.828-.207.877-.572a2.191,2.191,0,0,1,1.156-1.531,10.477,10.477,0,0,1,2.814-.658c2.049-.293,1.978-.273,2.171-.637a3.031,3.031,0,0,1,2.721-1.461,4.636,4.636,0,0,1,1.62.313l.505.174.347-.154a6.8,6.8,0,0,1,1.854-.508,3.3,3.3,0,0,1,2.631,1.045,16.092,16.092,0,0,0,1.969,1.6c.252.148.31.16.383.083.047-.05,2.35-3.309,5.118-7.243s5.059-7.181,5.093-7.217c.123-.132.729-.071,1.12.112a2.706,2.706,0,0,1,1.2,1.145c.107.28.106.3-.017.469-2.313,3.188-9.99,13.926-9.99,13.973a4.154,4.154,0,0,0,1.41.53,9.805,9.805,0,0,1,.961.322,2.938,2.938,0,0,1,1.045.977,3.06,3.06,0,0,0,.992.748,16.418,16.418,0,0,1,1.84,1.164l.38.288,2.309-1.35c1.27-.743,4.92-2.883,8.112-4.756l5.8-3.405.191.108a3.826,3.826,0,0,1,.543.448,2.1,2.1,0,0,1,.7,1.519l0,.418-7.9,4.471c-4.346,2.459-7.939,4.494-7.983,4.524-.062.04-.05.113.049.307a4.746,4.746,0,0,1,.426,2.363,4.049,4.049,0,0,1-.422,2.226,10.14,10.14,0,0,0-.362,1.022,22.138,22.138,0,0,1-5.1,8.478,11.988,11.988,0,0,1-4.139,2.907l-.894.425,0,2.186-.974.238a24.234,24.234,0,0,1-6.3.616c-.884-.006-1.725-.02-1.869-.032Z" transform="translate(-265.475 -37.295)"/>
        </g>
      </g>
      <g id="Group_1-18" data-name="Group 1" transform="translate(1092 7)">
        <text id="家庭-18" data-name="家庭" transform="translate(143 111)" font-size="41" font-family="YuGothicUI-Semibold, Yu Gothic UI" font-weight="600"><tspan x="0" y="0">家庭</tspan></text>
        <text id="料理-18" data-name="料理" transform="translate(288 111)" font-size="41" font-family="YuGothicUI-Semibold, Yu Gothic UI" font-weight="600"><tspan x="0" y="0">料理</tspan></text>
        <g id="drawing-1-8" data-name="drawing-1" transform="translate(230.795 73.395)">
          <path id="Path_1-8" data-name="Path 1" d="M282.411,79.8a27.931,27.931,0,0,1-5.064-.91L277,78.8l-.036-2.186-.53-.207a13.451,13.451,0,0,1-4.731-3.125,24.338,24.338,0,0,1-4.479-6.781,11.112,11.112,0,0,1-.822-2c-.129-.451-.365-1.227-.525-1.725a5.238,5.238,0,0,1-.1-3.794A7.95,7.95,0,0,1,269.752,55a11.3,11.3,0,0,1,2.266-.867c.824-.2.828-.207.877-.572a2.191,2.191,0,0,1,1.156-1.531,10.477,10.477,0,0,1,2.814-.658c2.049-.293,1.978-.273,2.171-.637a3.031,3.031,0,0,1,2.721-1.461,4.636,4.636,0,0,1,1.62.313l.505.174.347-.154a6.8,6.8,0,0,1,1.854-.508,3.3,3.3,0,0,1,2.631,1.045,16.092,16.092,0,0,0,1.969,1.6c.252.148.31.16.383.083.047-.05,2.35-3.309,5.118-7.243s5.059-7.181,5.093-7.217c.123-.132.729-.071,1.12.112a2.706,2.706,0,0,1,1.2,1.145c.107.28.106.3-.017.469-2.313,3.188-9.99,13.926-9.99,13.973a4.154,4.154,0,0,0,1.41.53,9.805,9.805,0,0,1,.961.322,2.938,2.938,0,0,1,1.045.977,3.06,3.06,0,0,0,.992.748,16.418,16.418,0,0,1,1.84,1.164l.38.288,2.309-1.35c1.27-.743,4.92-2.883,8.112-4.756l5.8-3.405.191.108a3.826,3.826,0,0,1,.543.448,2.1,2.1,0,0,1,.7,1.519l0,.418-7.9,4.471c-4.346,2.459-7.939,4.494-7.983,4.524-.062.04-.05.113.049.307a4.746,4.746,0,0,1,.426,2.363,4.049,4.049,0,0,1-.422,2.226,10.14,10.14,0,0,0-.362,1.022,22.138,22.138,0,0,1-5.1,8.478,11.988,11.988,0,0,1-4.139,2.907l-.894.425,0,2.186-.974.238a24.234,24.234,0,0,1-6.3.616c-.884-.006-1.725-.02-1.869-.032Z" transform="translate(-265.475 -37.295)"/>
        </g>
      </g>
      <g id="Group_1-19" data-name="Group 1" transform="translate(-143 81)">
        <text id="家庭-19" data-name="家庭" transform="translate(143 111)" font-size="41" font-family="YuGothicUI-Semibold, Yu Gothic UI" font-weight="600"><tspan x="0" y="0">家庭</tspan></text>
        <text id="料理-19" data-name="料理" transform="translate(288 111)" font-size="41" font-family="YuGothicUI-Semibold, Yu Gothic UI" font-weight="600"><tspan x="0" y="0">料理</tspan></text>
        <g id="drawing-1-9" data-name="drawing-1" transform="translate(230.795 73.395)">
          <path id="Path_1-9" data-name="Path 1" d="M282.411,79.8a27.931,27.931,0,0,1-5.064-.91L277,78.8l-.036-2.186-.53-.207a13.451,13.451,0,0,1-4.731-3.125,24.338,24.338,0,0,1-4.479-6.781,11.112,11.112,0,0,1-.822-2c-.129-.451-.365-1.227-.525-1.725a5.238,5.238,0,0,1-.1-3.794A7.95,7.95,0,0,1,269.752,55a11.3,11.3,0,0,1,2.266-.867c.824-.2.828-.207.877-.572a2.191,2.191,0,0,1,1.156-1.531,10.477,10.477,0,0,1,2.814-.658c2.049-.293,1.978-.273,2.171-.637a3.031,3.031,0,0,1,2.721-1.461,4.636,4.636,0,0,1,1.62.313l.505.174.347-.154a6.8,6.8,0,0,1,1.854-.508,3.3,3.3,0,0,1,2.631,1.045,16.092,16.092,0,0,0,1.969,1.6c.252.148.31.16.383.083.047-.05,2.35-3.309,5.118-7.243s5.059-7.181,5.093-7.217c.123-.132.729-.071,1.12.112a2.706,2.706,0,0,1,1.2,1.145c.107.28.106.3-.017.469-2.313,3.188-9.99,13.926-9.99,13.973a4.154,4.154,0,0,0,1.41.53,9.805,9.805,0,0,1,.961.322,2.938,2.938,0,0,1,1.045.977,3.06,3.06,0,0,0,.992.748,16.418,16.418,0,0,1,1.84,1.164l.38.288,2.309-1.35c1.27-.743,4.92-2.883,8.112-4.756l5.8-3.405.191.108a3.826,3.826,0,0,1,.543.448,2.1,2.1,0,0,1,.7,1.519l0,.418-7.9,4.471c-4.346,2.459-7.939,4.494-7.983,4.524-.062.04-.05.113.049.307a4.746,4.746,0,0,1,.426,2.363,4.049,4.049,0,0,1-.422,2.226,10.14,10.14,0,0,0-.362,1.022,22.138,22.138,0,0,1-5.1,8.478,11.988,11.988,0,0,1-4.139,2.907l-.894.425,0,2.186-.974.238a24.234,24.234,0,0,1-6.3.616c-.884-.006-1.725-.02-1.869-.032Z" transform="translate(-265.475 -37.295)"/>
        </g>
      </g>
      <g id="Group_1-20" data-name="Group 1" transform="translate(351 81)">
        <text id="家庭-20" data-name="家庭" transform="translate(143 111)" font-size="41" font-family="YuGothicUI-Semibold, Yu Gothic UI" font-weight="600"><tspan x="0" y="0">家庭</tspan></text>
        <text id="料理-20" data-name="料理" transform="translate(288 111)" font-size="41" font-family="YuGothicUI-Semibold, Yu Gothic UI" font-weight="600"><tspan x="0" y="0">料理</tspan></text>
        <g id="drawing-1-10" data-name="drawing-1" transform="translate(230.795 73.395)">
          <path id="Path_1-10" data-name="Path 1" d="M282.411,79.8a27.931,27.931,0,0,1-5.064-.91L277,78.8l-.036-2.186-.53-.207a13.451,13.451,0,0,1-4.731-3.125,24.338,24.338,0,0,1-4.479-6.781,11.112,11.112,0,0,1-.822-2c-.129-.451-.365-1.227-.525-1.725a5.238,5.238,0,0,1-.1-3.794A7.95,7.95,0,0,1,269.752,55a11.3,11.3,0,0,1,2.266-.867c.824-.2.828-.207.877-.572a2.191,2.191,0,0,1,1.156-1.531,10.477,10.477,0,0,1,2.814-.658c2.049-.293,1.978-.273,2.171-.637a3.031,3.031,0,0,1,2.721-1.461,4.636,4.636,0,0,1,1.62.313l.505.174.347-.154a6.8,6.8,0,0,1,1.854-.508,3.3,3.3,0,0,1,2.631,1.045,16.092,16.092,0,0,0,1.969,1.6c.252.148.31.16.383.083.047-.05,2.35-3.309,5.118-7.243s5.059-7.181,5.093-7.217c.123-.132.729-.071,1.12.112a2.706,2.706,0,0,1,1.2,1.145c.107.28.106.3-.017.469-2.313,3.188-9.99,13.926-9.99,13.973a4.154,4.154,0,0,0,1.41.53,9.805,9.805,0,0,1,.961.322,2.938,2.938,0,0,1,1.045.977,3.06,3.06,0,0,0,.992.748,16.418,16.418,0,0,1,1.84,1.164l.38.288,2.309-1.35c1.27-.743,4.92-2.883,8.112-4.756l5.8-3.405.191.108a3.826,3.826,0,0,1,.543.448,2.1,2.1,0,0,1,.7,1.519l0,.418-7.9,4.471c-4.346,2.459-7.939,4.494-7.983,4.524-.062.04-.05.113.049.307a4.746,4.746,0,0,1,.426,2.363,4.049,4.049,0,0,1-.422,2.226,10.14,10.14,0,0,0-.362,1.022,22.138,22.138,0,0,1-5.1,8.478,11.988,11.988,0,0,1-4.139,2.907l-.894.425,0,2.186-.974.238a24.234,24.234,0,0,1-6.3.616c-.884-.006-1.725-.02-1.869-.032Z" transform="translate(-265.475 -37.295)"/>
        </g>
      </g>
      <g id="Group_1-21" data-name="Group 1" transform="translate(845 81)">
        <text id="家庭-21" data-name="家庭" transform="translate(143 111)" font-size="41" font-family="YuGothicUI-Semibold, Yu Gothic UI" font-weight="600"><tspan x="0" y="0">家庭</tspan></text>
        <text id="料理-21" data-name="料理" transform="translate(288 111)" font-size="41" font-family="YuGothicUI-Semibold, Yu Gothic UI" font-weight="600"><tspan x="0" y="0">料理</tspan></text>
        <g id="drawing-1-11" data-name="drawing-1" transform="translate(230.795 73.395)">
          <path id="Path_1-11" data-name="Path 1" d="M282.411,79.8a27.931,27.931,0,0,1-5.064-.91L277,78.8l-.036-2.186-.53-.207a13.451,13.451,0,0,1-4.731-3.125,24.338,24.338,0,0,1-4.479-6.781,11.112,11.112,0,0,1-.822-2c-.129-.451-.365-1.227-.525-1.725a5.238,5.238,0,0,1-.1-3.794A7.95,7.95,0,0,1,269.752,55a11.3,11.3,0,0,1,2.266-.867c.824-.2.828-.207.877-.572a2.191,2.191,0,0,1,1.156-1.531,10.477,10.477,0,0,1,2.814-.658c2.049-.293,1.978-.273,2.171-.637a3.031,3.031,0,0,1,2.721-1.461,4.636,4.636,0,0,1,1.62.313l.505.174.347-.154a6.8,6.8,0,0,1,1.854-.508,3.3,3.3,0,0,1,2.631,1.045,16.092,16.092,0,0,0,1.969,1.6c.252.148.31.16.383.083.047-.05,2.35-3.309,5.118-7.243s5.059-7.181,5.093-7.217c.123-.132.729-.071,1.12.112a2.706,2.706,0,0,1,1.2,1.145c.107.28.106.3-.017.469-2.313,3.188-9.99,13.926-9.99,13.973a4.154,4.154,0,0,0,1.41.53,9.805,9.805,0,0,1,.961.322,2.938,2.938,0,0,1,1.045.977,3.06,3.06,0,0,0,.992.748,16.418,16.418,0,0,1,1.84,1.164l.38.288,2.309-1.35c1.27-.743,4.92-2.883,8.112-4.756l5.8-3.405.191.108a3.826,3.826,0,0,1,.543.448,2.1,2.1,0,0,1,.7,1.519l0,.418-7.9,4.471c-4.346,2.459-7.939,4.494-7.983,4.524-.062.04-.05.113.049.307a4.746,4.746,0,0,1,.426,2.363,4.049,4.049,0,0,1-.422,2.226,10.14,10.14,0,0,0-.362,1.022,22.138,22.138,0,0,1-5.1,8.478,11.988,11.988,0,0,1-4.139,2.907l-.894.425,0,2.186-.974.238a24.234,24.234,0,0,1-6.3.616c-.884-.006-1.725-.02-1.869-.032Z" transform="translate(-265.475 -37.295)"/>
        </g>
      </g>
      <g id="Group_1-22" data-name="Group 1" transform="translate(1092 81)">
        <text id="家庭-22" data-name="家庭" transform="translate(143 111)" font-size="41" font-family="YuGothicUI-Semibold, Yu Gothic UI" font-weight="600"><tspan x="0" y="0">家庭</tspan></text>
        <text id="料理-22" data-name="料理" transform="translate(288 111)" font-size="41" font-family="YuGothicUI-Semibold, Yu Gothic UI" font-weight="600"><tspan x="0" y="0">料理</tspan></text>
        <g id="drawing-1-12" data-name="drawing-1" transform="translate(230.795 73.395)">
          <path id="Path_1-12" data-name="Path 1" d="M282.411,79.8a27.931,27.931,0,0,1-5.064-.91L277,78.8l-.036-2.186-.53-.207a13.451,13.451,0,0,1-4.731-3.125,24.338,24.338,0,0,1-4.479-6.781,11.112,11.112,0,0,1-.822-2c-.129-.451-.365-1.227-.525-1.725a5.238,5.238,0,0,1-.1-3.794A7.95,7.95,0,0,1,269.752,55a11.3,11.3,0,0,1,2.266-.867c.824-.2.828-.207.877-.572a2.191,2.191,0,0,1,1.156-1.531,10.477,10.477,0,0,1,2.814-.658c2.049-.293,1.978-.273,2.171-.637a3.031,3.031,0,0,1,2.721-1.461,4.636,4.636,0,0,1,1.62.313l.505.174.347-.154a6.8,6.8,0,0,1,1.854-.508,3.3,3.3,0,0,1,2.631,1.045,16.092,16.092,0,0,0,1.969,1.6c.252.148.31.16.383.083.047-.05,2.35-3.309,5.118-7.243s5.059-7.181,5.093-7.217c.123-.132.729-.071,1.12.112a2.706,2.706,0,0,1,1.2,1.145c.107.28.106.3-.017.469-2.313,3.188-9.99,13.926-9.99,13.973a4.154,4.154,0,0,0,1.41.53,9.805,9.805,0,0,1,.961.322,2.938,2.938,0,0,1,1.045.977,3.06,3.06,0,0,0,.992.748,16.418,16.418,0,0,1,1.84,1.164l.38.288,2.309-1.35c1.27-.743,4.92-2.883,8.112-4.756l5.8-3.405.191.108a3.826,3.826,0,0,1,.543.448,2.1,2.1,0,0,1,.7,1.519l0,.418-7.9,4.471c-4.346,2.459-7.939,4.494-7.983,4.524-.062.04-.05.113.049.307a4.746,4.746,0,0,1,.426,2.363,4.049,4.049,0,0,1-.422,2.226,10.14,10.14,0,0,0-.362,1.022,22.138,22.138,0,0,1-5.1,8.478,11.988,11.988,0,0,1-4.139,2.907l-.894.425,0,2.186-.974.238a24.234,24.234,0,0,1-6.3.616c-.884-.006-1.725-.02-1.869-.032Z" transform="translate(-265.475 -37.295)"/>
        </g>
      </g>
      <g id="Group_1-23" data-name="Group 1" transform="translate(-143 155)">
        <text id="家庭-23" data-name="家庭" transform="translate(143 111)" font-size="41" font-family="YuGothicUI-Semibold, Yu Gothic UI" font-weight="600"><tspan x="0" y="0">家庭</tspan></text>
        <text id="料理-23" data-name="料理" transform="translate(288 111)" font-size="41" font-family="YuGothicUI-Semibold, Yu Gothic UI" font-weight="600"><tspan x="0" y="0">料理</tspan></text>
        <g id="drawing-1-13" data-name="drawing-1" transform="translate(230.795 73.395)">
          <path id="Path_1-13" data-name="Path 1" d="M282.411,79.8a27.931,27.931,0,0,1-5.064-.91L277,78.8l-.036-2.186-.53-.207a13.451,13.451,0,0,1-4.731-3.125,24.338,24.338,0,0,1-4.479-6.781,11.112,11.112,0,0,1-.822-2c-.129-.451-.365-1.227-.525-1.725a5.238,5.238,0,0,1-.1-3.794A7.95,7.95,0,0,1,269.752,55a11.3,11.3,0,0,1,2.266-.867c.824-.2.828-.207.877-.572a2.191,2.191,0,0,1,1.156-1.531,10.477,10.477,0,0,1,2.814-.658c2.049-.293,1.978-.273,2.171-.637a3.031,3.031,0,0,1,2.721-1.461,4.636,4.636,0,0,1,1.62.313l.505.174.347-.154a6.8,6.8,0,0,1,1.854-.508,3.3,3.3,0,0,1,2.631,1.045,16.092,16.092,0,0,0,1.969,1.6c.252.148.31.16.383.083.047-.05,2.35-3.309,5.118-7.243s5.059-7.181,5.093-7.217c.123-.132.729-.071,1.12.112a2.706,2.706,0,0,1,1.2,1.145c.107.28.106.3-.017.469-2.313,3.188-9.99,13.926-9.99,13.973a4.154,4.154,0,0,0,1.41.53,9.805,9.805,0,0,1,.961.322,2.938,2.938,0,0,1,1.045.977,3.06,3.06,0,0,0,.992.748,16.418,16.418,0,0,1,1.84,1.164l.38.288,2.309-1.35c1.27-.743,4.92-2.883,8.112-4.756l5.8-3.405.191.108a3.826,3.826,0,0,1,.543.448,2.1,2.1,0,0,1,.7,1.519l0,.418-7.9,4.471c-4.346,2.459-7.939,4.494-7.983,4.524-.062.04-.05.113.049.307a4.746,4.746,0,0,1,.426,2.363,4.049,4.049,0,0,1-.422,2.226,10.14,10.14,0,0,0-.362,1.022,22.138,22.138,0,0,1-5.1,8.478,11.988,11.988,0,0,1-4.139,2.907l-.894.425,0,2.186-.974.238a24.234,24.234,0,0,1-6.3.616c-.884-.006-1.725-.02-1.869-.032Z" transform="translate(-265.475 -37.295)"/>
        </g>
      </g>
      <g id="Group_1-24" data-name="Group 1" transform="translate(351 155)">
        <text id="家庭-24" data-name="家庭" transform="translate(143 111)" font-size="41" font-family="YuGothicUI-Semibold, Yu Gothic UI" font-weight="600"><tspan x="0" y="0">家庭</tspan></text>
        <text id="料理-24" data-name="料理" transform="translate(288 111)" font-size="41" font-family="YuGothicUI-Semibold, Yu Gothic UI" font-weight="600"><tspan x="0" y="0">料理</tspan></text>
        <g id="drawing-1-14" data-name="drawing-1" transform="translate(230.795 73.395)">
          <path id="Path_1-14" data-name="Path 1" d="M282.411,79.8a27.931,27.931,0,0,1-5.064-.91L277,78.8l-.036-2.186-.53-.207a13.451,13.451,0,0,1-4.731-3.125,24.338,24.338,0,0,1-4.479-6.781,11.112,11.112,0,0,1-.822-2c-.129-.451-.365-1.227-.525-1.725a5.238,5.238,0,0,1-.1-3.794A7.95,7.95,0,0,1,269.752,55a11.3,11.3,0,0,1,2.266-.867c.824-.2.828-.207.877-.572a2.191,2.191,0,0,1,1.156-1.531,10.477,10.477,0,0,1,2.814-.658c2.049-.293,1.978-.273,2.171-.637a3.031,3.031,0,0,1,2.721-1.461,4.636,4.636,0,0,1,1.62.313l.505.174.347-.154a6.8,6.8,0,0,1,1.854-.508,3.3,3.3,0,0,1,2.631,1.045,16.092,16.092,0,0,0,1.969,1.6c.252.148.31.16.383.083.047-.05,2.35-3.309,5.118-7.243s5.059-7.181,5.093-7.217c.123-.132.729-.071,1.12.112a2.706,2.706,0,0,1,1.2,1.145c.107.28.106.3-.017.469-2.313,3.188-9.99,13.926-9.99,13.973a4.154,4.154,0,0,0,1.41.53,9.805,9.805,0,0,1,.961.322,2.938,2.938,0,0,1,1.045.977,3.06,3.06,0,0,0,.992.748,16.418,16.418,0,0,1,1.84,1.164l.38.288,2.309-1.35c1.27-.743,4.92-2.883,8.112-4.756l5.8-3.405.191.108a3.826,3.826,0,0,1,.543.448,2.1,2.1,0,0,1,.7,1.519l0,.418-7.9,4.471c-4.346,2.459-7.939,4.494-7.983,4.524-.062.04-.05.113.049.307a4.746,4.746,0,0,1,.426,2.363,4.049,4.049,0,0,1-.422,2.226,10.14,10.14,0,0,0-.362,1.022,22.138,22.138,0,0,1-5.1,8.478,11.988,11.988,0,0,1-4.139,2.907l-.894.425,0,2.186-.974.238a24.234,24.234,0,0,1-6.3.616c-.884-.006-1.725-.02-1.869-.032Z" transform="translate(-265.475 -37.295)"/>
        </g>
      </g>
      <g id="Group_1-25" data-name="Group 1" transform="translate(845 155)">
        <text id="家庭-25" data-name="家庭" transform="translate(143 111)" font-size="41" font-family="YuGothicUI-Semibold, Yu Gothic UI" font-weight="600"><tspan x="0" y="0">家庭</tspan></text>
        <text id="料理-25" data-name="料理" transform="translate(288 111)" font-size="41" font-family="YuGothicUI-Semibold, Yu Gothic UI" font-weight="600"><tspan x="0" y="0">料理</tspan></text>
        <g id="drawing-1-15" data-name="drawing-1" transform="translate(230.795 73.395)">
          <path id="Path_1-15" data-name="Path 1" d="M282.411,79.8a27.931,27.931,0,0,1-5.064-.91L277,78.8l-.036-2.186-.53-.207a13.451,13.451,0,0,1-4.731-3.125,24.338,24.338,0,0,1-4.479-6.781,11.112,11.112,0,0,1-.822-2c-.129-.451-.365-1.227-.525-1.725a5.238,5.238,0,0,1-.1-3.794A7.95,7.95,0,0,1,269.752,55a11.3,11.3,0,0,1,2.266-.867c.824-.2.828-.207.877-.572a2.191,2.191,0,0,1,1.156-1.531,10.477,10.477,0,0,1,2.814-.658c2.049-.293,1.978-.273,2.171-.637a3.031,3.031,0,0,1,2.721-1.461,4.636,4.636,0,0,1,1.62.313l.505.174.347-.154a6.8,6.8,0,0,1,1.854-.508,3.3,3.3,0,0,1,2.631,1.045,16.092,16.092,0,0,0,1.969,1.6c.252.148.31.16.383.083.047-.05,2.35-3.309,5.118-7.243s5.059-7.181,5.093-7.217c.123-.132.729-.071,1.12.112a2.706,2.706,0,0,1,1.2,1.145c.107.28.106.3-.017.469-2.313,3.188-9.99,13.926-9.99,13.973a4.154,4.154,0,0,0,1.41.53,9.805,9.805,0,0,1,.961.322,2.938,2.938,0,0,1,1.045.977,3.06,3.06,0,0,0,.992.748,16.418,16.418,0,0,1,1.84,1.164l.38.288,2.309-1.35c1.27-.743,4.92-2.883,8.112-4.756l5.8-3.405.191.108a3.826,3.826,0,0,1,.543.448,2.1,2.1,0,0,1,.7,1.519l0,.418-7.9,4.471c-4.346,2.459-7.939,4.494-7.983,4.524-.062.04-.05.113.049.307a4.746,4.746,0,0,1,.426,2.363,4.049,4.049,0,0,1-.422,2.226,10.14,10.14,0,0,0-.362,1.022,22.138,22.138,0,0,1-5.1,8.478,11.988,11.988,0,0,1-4.139,2.907l-.894.425,0,2.186-.974.238a24.234,24.234,0,0,1-6.3.616c-.884-.006-1.725-.02-1.869-.032Z" transform="translate(-265.475 -37.295)"/>
        </g>
      </g>
      <g id="Group_1-26" data-name="Group 1" transform="translate(1092 155)">
        <text id="家庭-26" data-name="家庭" transform="translate(143 111)" font-size="41" font-family="YuGothicUI-Semibold, Yu Gothic UI" font-weight="600"><tspan x="0" y="0">家庭</tspan></text>
        <text id="料理-26" data-name="料理" transform="translate(288 111)" font-size="41" font-family="YuGothicUI-Semibold, Yu Gothic UI" font-weight="600"><tspan x="0" y="0">料理</tspan></text>
        <g id="drawing-1-16" data-name="drawing-1" transform="translate(230.795 73.395)">
          <path id="Path_1-16" data-name="Path 1" d="M282.411,79.8a27.931,27.931,0,0,1-5.064-.91L277,78.8l-.036-2.186-.53-.207a13.451,13.451,0,0,1-4.731-3.125,24.338,24.338,0,0,1-4.479-6.781,11.112,11.112,0,0,1-.822-2c-.129-.451-.365-1.227-.525-1.725a5.238,5.238,0,0,1-.1-3.794A7.95,7.95,0,0,1,269.752,55a11.3,11.3,0,0,1,2.266-.867c.824-.2.828-.207.877-.572a2.191,2.191,0,0,1,1.156-1.531,10.477,10.477,0,0,1,2.814-.658c2.049-.293,1.978-.273,2.171-.637a3.031,3.031,0,0,1,2.721-1.461,4.636,4.636,0,0,1,1.62.313l.505.174.347-.154a6.8,6.8,0,0,1,1.854-.508,3.3,3.3,0,0,1,2.631,1.045,16.092,16.092,0,0,0,1.969,1.6c.252.148.31.16.383.083.047-.05,2.35-3.309,5.118-7.243s5.059-7.181,5.093-7.217c.123-.132.729-.071,1.12.112a2.706,2.706,0,0,1,1.2,1.145c.107.28.106.3-.017.469-2.313,3.188-9.99,13.926-9.99,13.973a4.154,4.154,0,0,0,1.41.53,9.805,9.805,0,0,1,.961.322,2.938,2.938,0,0,1,1.045.977,3.06,3.06,0,0,0,.992.748,16.418,16.418,0,0,1,1.84,1.164l.38.288,2.309-1.35c1.27-.743,4.92-2.883,8.112-4.756l5.8-3.405.191.108a3.826,3.826,0,0,1,.543.448,2.1,2.1,0,0,1,.7,1.519l0,.418-7.9,4.471c-4.346,2.459-7.939,4.494-7.983,4.524-.062.04-.05.113.049.307a4.746,4.746,0,0,1,.426,2.363,4.049,4.049,0,0,1-.422,2.226,10.14,10.14,0,0,0-.362,1.022,22.138,22.138,0,0,1-5.1,8.478,11.988,11.988,0,0,1-4.139,2.907l-.894.425,0,2.186-.974.238a24.234,24.234,0,0,1-6.3.616c-.884-.006-1.725-.02-1.869-.032Z" transform="translate(-265.475 -37.295)"/>
        </g>
      </g>
      <g id="Group_1-27" data-name="Group 1" transform="translate(-143 229)">
        <text id="家庭-27" data-name="家庭" transform="translate(143 111)" font-size="41" font-family="YuGothicUI-Semibold, Yu Gothic UI" font-weight="600"><tspan x="0" y="0">家庭</tspan></text>
        <text id="料理-27" data-name="料理" transform="translate(288 111)" font-size="41" font-family="YuGothicUI-Semibold, Yu Gothic UI" font-weight="600"><tspan x="0" y="0">料理</tspan></text>
        <g id="drawing-1-17" data-name="drawing-1" transform="translate(230.795 73.395)">
          <path id="Path_1-17" data-name="Path 1" d="M282.411,79.8a27.931,27.931,0,0,1-5.064-.91L277,78.8l-.036-2.186-.53-.207a13.451,13.451,0,0,1-4.731-3.125,24.338,24.338,0,0,1-4.479-6.781,11.112,11.112,0,0,1-.822-2c-.129-.451-.365-1.227-.525-1.725a5.238,5.238,0,0,1-.1-3.794A7.95,7.95,0,0,1,269.752,55a11.3,11.3,0,0,1,2.266-.867c.824-.2.828-.207.877-.572a2.191,2.191,0,0,1,1.156-1.531,10.477,10.477,0,0,1,2.814-.658c2.049-.293,1.978-.273,2.171-.637a3.031,3.031,0,0,1,2.721-1.461,4.636,4.636,0,0,1,1.62.313l.505.174.347-.154a6.8,6.8,0,0,1,1.854-.508,3.3,3.3,0,0,1,2.631,1.045,16.092,16.092,0,0,0,1.969,1.6c.252.148.31.16.383.083.047-.05,2.35-3.309,5.118-7.243s5.059-7.181,5.093-7.217c.123-.132.729-.071,1.12.112a2.706,2.706,0,0,1,1.2,1.145c.107.28.106.3-.017.469-2.313,3.188-9.99,13.926-9.99,13.973a4.154,4.154,0,0,0,1.41.53,9.805,9.805,0,0,1,.961.322,2.938,2.938,0,0,1,1.045.977,3.06,3.06,0,0,0,.992.748,16.418,16.418,0,0,1,1.84,1.164l.38.288,2.309-1.35c1.27-.743,4.92-2.883,8.112-4.756l5.8-3.405.191.108a3.826,3.826,0,0,1,.543.448,2.1,2.1,0,0,1,.7,1.519l0,.418-7.9,4.471c-4.346,2.459-7.939,4.494-7.983,4.524-.062.04-.05.113.049.307a4.746,4.746,0,0,1,.426,2.363,4.049,4.049,0,0,1-.422,2.226,10.14,10.14,0,0,0-.362,1.022,22.138,22.138,0,0,1-5.1,8.478,11.988,11.988,0,0,1-4.139,2.907l-.894.425,0,2.186-.974.238a24.234,24.234,0,0,1-6.3.616c-.884-.006-1.725-.02-1.869-.032Z" transform="translate(-265.475 -37.295)"/>
        </g>
      </g>
      <g id="Group_1-28" data-name="Group 1" transform="translate(351 229)">
        <text id="家庭-28" data-name="家庭" transform="translate(143 111)" font-size="41" font-family="YuGothicUI-Semibold, Yu Gothic UI" font-weight="600"><tspan x="0" y="0">家庭</tspan></text>
        <text id="料理-28" data-name="料理" transform="translate(288 111)" font-size="41" font-family="YuGothicUI-Semibold, Yu Gothic UI" font-weight="600"><tspan x="0" y="0">料理</tspan></text>
        <g id="drawing-1-18" data-name="drawing-1" transform="translate(230.795 73.395)">
          <path id="Path_1-18" data-name="Path 1" d="M282.411,79.8a27.931,27.931,0,0,1-5.064-.91L277,78.8l-.036-2.186-.53-.207a13.451,13.451,0,0,1-4.731-3.125,24.338,24.338,0,0,1-4.479-6.781,11.112,11.112,0,0,1-.822-2c-.129-.451-.365-1.227-.525-1.725a5.238,5.238,0,0,1-.1-3.794A7.95,7.95,0,0,1,269.752,55a11.3,11.3,0,0,1,2.266-.867c.824-.2.828-.207.877-.572a2.191,2.191,0,0,1,1.156-1.531,10.477,10.477,0,0,1,2.814-.658c2.049-.293,1.978-.273,2.171-.637a3.031,3.031,0,0,1,2.721-1.461,4.636,4.636,0,0,1,1.62.313l.505.174.347-.154a6.8,6.8,0,0,1,1.854-.508,3.3,3.3,0,0,1,2.631,1.045,16.092,16.092,0,0,0,1.969,1.6c.252.148.31.16.383.083.047-.05,2.35-3.309,5.118-7.243s5.059-7.181,5.093-7.217c.123-.132.729-.071,1.12.112a2.706,2.706,0,0,1,1.2,1.145c.107.28.106.3-.017.469-2.313,3.188-9.99,13.926-9.99,13.973a4.154,4.154,0,0,0,1.41.53,9.805,9.805,0,0,1,.961.322,2.938,2.938,0,0,1,1.045.977,3.06,3.06,0,0,0,.992.748,16.418,16.418,0,0,1,1.84,1.164l.38.288,2.309-1.35c1.27-.743,4.92-2.883,8.112-4.756l5.8-3.405.191.108a3.826,3.826,0,0,1,.543.448,2.1,2.1,0,0,1,.7,1.519l0,.418-7.9,4.471c-4.346,2.459-7.939,4.494-7.983,4.524-.062.04-.05.113.049.307a4.746,4.746,0,0,1,.426,2.363,4.049,4.049,0,0,1-.422,2.226,10.14,10.14,0,0,0-.362,1.022,22.138,22.138,0,0,1-5.1,8.478,11.988,11.988,0,0,1-4.139,2.907l-.894.425,0,2.186-.974.238a24.234,24.234,0,0,1-6.3.616c-.884-.006-1.725-.02-1.869-.032Z" transform="translate(-265.475 -37.295)"/>
        </g>
      </g>
      <g id="Group_1-29" data-name="Group 1" transform="translate(845 229)">
        <text id="家庭-29" data-name="家庭" transform="translate(143 111)" font-size="41" font-family="YuGothicUI-Semibold, Yu Gothic UI" font-weight="600"><tspan x="0" y="0">家庭</tspan></text>
        <text id="料理-29" data-name="料理" transform="translate(288 111)" font-size="41" font-family="YuGothicUI-Semibold, Yu Gothic UI" font-weight="600"><tspan x="0" y="0">料理</tspan></text>
        <g id="drawing-1-19" data-name="drawing-1" transform="translate(230.795 73.395)">
          <path id="Path_1-19" data-name="Path 1" d="M282.411,79.8a27.931,27.931,0,0,1-5.064-.91L277,78.8l-.036-2.186-.53-.207a13.451,13.451,0,0,1-4.731-3.125,24.338,24.338,0,0,1-4.479-6.781,11.112,11.112,0,0,1-.822-2c-.129-.451-.365-1.227-.525-1.725a5.238,5.238,0,0,1-.1-3.794A7.95,7.95,0,0,1,269.752,55a11.3,11.3,0,0,1,2.266-.867c.824-.2.828-.207.877-.572a2.191,2.191,0,0,1,1.156-1.531,10.477,10.477,0,0,1,2.814-.658c2.049-.293,1.978-.273,2.171-.637a3.031,3.031,0,0,1,2.721-1.461,4.636,4.636,0,0,1,1.62.313l.505.174.347-.154a6.8,6.8,0,0,1,1.854-.508,3.3,3.3,0,0,1,2.631,1.045,16.092,16.092,0,0,0,1.969,1.6c.252.148.31.16.383.083.047-.05,2.35-3.309,5.118-7.243s5.059-7.181,5.093-7.217c.123-.132.729-.071,1.12.112a2.706,2.706,0,0,1,1.2,1.145c.107.28.106.3-.017.469-2.313,3.188-9.99,13.926-9.99,13.973a4.154,4.154,0,0,0,1.41.53,9.805,9.805,0,0,1,.961.322,2.938,2.938,0,0,1,1.045.977,3.06,3.06,0,0,0,.992.748,16.418,16.418,0,0,1,1.84,1.164l.38.288,2.309-1.35c1.27-.743,4.92-2.883,8.112-4.756l5.8-3.405.191.108a3.826,3.826,0,0,1,.543.448,2.1,2.1,0,0,1,.7,1.519l0,.418-7.9,4.471c-4.346,2.459-7.939,4.494-7.983,4.524-.062.04-.05.113.049.307a4.746,4.746,0,0,1,.426,2.363,4.049,4.049,0,0,1-.422,2.226,10.14,10.14,0,0,0-.362,1.022,22.138,22.138,0,0,1-5.1,8.478,11.988,11.988,0,0,1-4.139,2.907l-.894.425,0,2.186-.974.238a24.234,24.234,0,0,1-6.3.616c-.884-.006-1.725-.02-1.869-.032Z" transform="translate(-265.475 -37.295)"/>
        </g>
      </g>
      <g id="Group_1-30" data-name="Group 1" transform="translate(1092 229)">
        <text id="家庭-30" data-name="家庭" transform="translate(143 111)" font-size="41" font-family="YuGothicUI-Semibold, Yu Gothic UI" font-weight="600"><tspan x="0" y="0">家庭</tspan></text>
        <text id="料理-30" data-name="料理" transform="translate(288 111)" font-size="41" font-family="YuGothicUI-Semibold, Yu Gothic UI" font-weight="600"><tspan x="0" y="0">料理</tspan></text>
        <g id="drawing-1-20" data-name="drawing-1" transform="translate(230.795 73.395)">
          <path id="Path_1-20" data-name="Path 1" d="M282.411,79.8a27.931,27.931,0,0,1-5.064-.91L277,78.8l-.036-2.186-.53-.207a13.451,13.451,0,0,1-4.731-3.125,24.338,24.338,0,0,1-4.479-6.781,11.112,11.112,0,0,1-.822-2c-.129-.451-.365-1.227-.525-1.725a5.238,5.238,0,0,1-.1-3.794A7.95,7.95,0,0,1,269.752,55a11.3,11.3,0,0,1,2.266-.867c.824-.2.828-.207.877-.572a2.191,2.191,0,0,1,1.156-1.531,10.477,10.477,0,0,1,2.814-.658c2.049-.293,1.978-.273,2.171-.637a3.031,3.031,0,0,1,2.721-1.461,4.636,4.636,0,0,1,1.62.313l.505.174.347-.154a6.8,6.8,0,0,1,1.854-.508,3.3,3.3,0,0,1,2.631,1.045,16.092,16.092,0,0,0,1.969,1.6c.252.148.31.16.383.083.047-.05,2.35-3.309,5.118-7.243s5.059-7.181,5.093-7.217c.123-.132.729-.071,1.12.112a2.706,2.706,0,0,1,1.2,1.145c.107.28.106.3-.017.469-2.313,3.188-9.99,13.926-9.99,13.973a4.154,4.154,0,0,0,1.41.53,9.805,9.805,0,0,1,.961.322,2.938,2.938,0,0,1,1.045.977,3.06,3.06,0,0,0,.992.748,16.418,16.418,0,0,1,1.84,1.164l.38.288,2.309-1.35c1.27-.743,4.92-2.883,8.112-4.756l5.8-3.405.191.108a3.826,3.826,0,0,1,.543.448,2.1,2.1,0,0,1,.7,1.519l0,.418-7.9,4.471c-4.346,2.459-7.939,4.494-7.983,4.524-.062.04-.05.113.049.307a4.746,4.746,0,0,1,.426,2.363,4.049,4.049,0,0,1-.422,2.226,10.14,10.14,0,0,0-.362,1.022,22.138,22.138,0,0,1-5.1,8.478,11.988,11.988,0,0,1-4.139,2.907l-.894.425,0,2.186-.974.238a24.234,24.234,0,0,1-6.3.616c-.884-.006-1.725-.02-1.869-.032Z" transform="translate(-265.475 -37.295)"/>
        </g>
      </g>
      <g id="Group_1-31" data-name="Group 1" transform="translate(-143 303)">
        <text id="家庭-31" data-name="家庭" transform="translate(143 111)" font-size="41" font-family="YuGothicUI-Semibold, Yu Gothic UI" font-weight="600"><tspan x="0" y="0">家庭</tspan></text>
        <text id="料理-31" data-name="料理" transform="translate(288 111)" font-size="41" font-family="YuGothicUI-Semibold, Yu Gothic UI" font-weight="600"><tspan x="0" y="0">料理</tspan></text>
        <g id="drawing-1-21" data-name="drawing-1" transform="translate(230.795 73.395)">
          <path id="Path_1-21" data-name="Path 1" d="M282.411,79.8a27.931,27.931,0,0,1-5.064-.91L277,78.8l-.036-2.186-.53-.207a13.451,13.451,0,0,1-4.731-3.125,24.338,24.338,0,0,1-4.479-6.781,11.112,11.112,0,0,1-.822-2c-.129-.451-.365-1.227-.525-1.725a5.238,5.238,0,0,1-.1-3.794A7.95,7.95,0,0,1,269.752,55a11.3,11.3,0,0,1,2.266-.867c.824-.2.828-.207.877-.572a2.191,2.191,0,0,1,1.156-1.531,10.477,10.477,0,0,1,2.814-.658c2.049-.293,1.978-.273,2.171-.637a3.031,3.031,0,0,1,2.721-1.461,4.636,4.636,0,0,1,1.62.313l.505.174.347-.154a6.8,6.8,0,0,1,1.854-.508,3.3,3.3,0,0,1,2.631,1.045,16.092,16.092,0,0,0,1.969,1.6c.252.148.31.16.383.083.047-.05,2.35-3.309,5.118-7.243s5.059-7.181,5.093-7.217c.123-.132.729-.071,1.12.112a2.706,2.706,0,0,1,1.2,1.145c.107.28.106.3-.017.469-2.313,3.188-9.99,13.926-9.99,13.973a4.154,4.154,0,0,0,1.41.53,9.805,9.805,0,0,1,.961.322,2.938,2.938,0,0,1,1.045.977,3.06,3.06,0,0,0,.992.748,16.418,16.418,0,0,1,1.84,1.164l.38.288,2.309-1.35c1.27-.743,4.92-2.883,8.112-4.756l5.8-3.405.191.108a3.826,3.826,0,0,1,.543.448,2.1,2.1,0,0,1,.7,1.519l0,.418-7.9,4.471c-4.346,2.459-7.939,4.494-7.983,4.524-.062.04-.05.113.049.307a4.746,4.746,0,0,1,.426,2.363,4.049,4.049,0,0,1-.422,2.226,10.14,10.14,0,0,0-.362,1.022,22.138,22.138,0,0,1-5.1,8.478,11.988,11.988,0,0,1-4.139,2.907l-.894.425,0,2.186-.974.238a24.234,24.234,0,0,1-6.3.616c-.884-.006-1.725-.02-1.869-.032Z" transform="translate(-265.475 -37.295)"/>
        </g>
      </g>
      <g id="Group_1-32" data-name="Group 1" transform="translate(351 303)">
        <text id="家庭-32" data-name="家庭" transform="translate(143 111)" font-size="41" font-family="YuGothicUI-Semibold, Yu Gothic UI" font-weight="600"><tspan x="0" y="0">家庭</tspan></text>
        <text id="料理-32" data-name="料理" transform="translate(288 111)" font-size="41" font-family="YuGothicUI-Semibold, Yu Gothic UI" font-weight="600"><tspan x="0" y="0">料理</tspan></text>
        <g id="drawing-1-22" data-name="drawing-1" transform="translate(230.795 73.395)">
          <path id="Path_1-22" data-name="Path 1" d="M282.411,79.8a27.931,27.931,0,0,1-5.064-.91L277,78.8l-.036-2.186-.53-.207a13.451,13.451,0,0,1-4.731-3.125,24.338,24.338,0,0,1-4.479-6.781,11.112,11.112,0,0,1-.822-2c-.129-.451-.365-1.227-.525-1.725a5.238,5.238,0,0,1-.1-3.794A7.95,7.95,0,0,1,269.752,55a11.3,11.3,0,0,1,2.266-.867c.824-.2.828-.207.877-.572a2.191,2.191,0,0,1,1.156-1.531,10.477,10.477,0,0,1,2.814-.658c2.049-.293,1.978-.273,2.171-.637a3.031,3.031,0,0,1,2.721-1.461,4.636,4.636,0,0,1,1.62.313l.505.174.347-.154a6.8,6.8,0,0,1,1.854-.508,3.3,3.3,0,0,1,2.631,1.045,16.092,16.092,0,0,0,1.969,1.6c.252.148.31.16.383.083.047-.05,2.35-3.309,5.118-7.243s5.059-7.181,5.093-7.217c.123-.132.729-.071,1.12.112a2.706,2.706,0,0,1,1.2,1.145c.107.28.106.3-.017.469-2.313,3.188-9.99,13.926-9.99,13.973a4.154,4.154,0,0,0,1.41.53,9.805,9.805,0,0,1,.961.322,2.938,2.938,0,0,1,1.045.977,3.06,3.06,0,0,0,.992.748,16.418,16.418,0,0,1,1.84,1.164l.38.288,2.309-1.35c1.27-.743,4.92-2.883,8.112-4.756l5.8-3.405.191.108a3.826,3.826,0,0,1,.543.448,2.1,2.1,0,0,1,.7,1.519l0,.418-7.9,4.471c-4.346,2.459-7.939,4.494-7.983,4.524-.062.04-.05.113.049.307a4.746,4.746,0,0,1,.426,2.363,4.049,4.049,0,0,1-.422,2.226,10.14,10.14,0,0,0-.362,1.022,22.138,22.138,0,0,1-5.1,8.478,11.988,11.988,0,0,1-4.139,2.907l-.894.425,0,2.186-.974.238a24.234,24.234,0,0,1-6.3.616c-.884-.006-1.725-.02-1.869-.032Z" transform="translate(-265.475 -37.295)"/>
        </g>
      </g>
      <g id="Group_1-33" data-name="Group 1" transform="translate(845 303)">
        <text id="家庭-33" data-name="家庭" transform="translate(143 111)" font-size="41" font-family="YuGothicUI-Semibold, Yu Gothic UI" font-weight="600"><tspan x="0" y="0">家庭</tspan></text>
        <text id="料理-33" data-name="料理" transform="translate(288 111)" font-size="41" font-family="YuGothicUI-Semibold, Yu Gothic UI" font-weight="600"><tspan x="0" y="0">料理</tspan></text>
        <g id="drawing-1-23" data-name="drawing-1" transform="translate(230.795 73.395)">
          <path id="Path_1-23" data-name="Path 1" d="M282.411,79.8a27.931,27.931,0,0,1-5.064-.91L277,78.8l-.036-2.186-.53-.207a13.451,13.451,0,0,1-4.731-3.125,24.338,24.338,0,0,1-4.479-6.781,11.112,11.112,0,0,1-.822-2c-.129-.451-.365-1.227-.525-1.725a5.238,5.238,0,0,1-.1-3.794A7.95,7.95,0,0,1,269.752,55a11.3,11.3,0,0,1,2.266-.867c.824-.2.828-.207.877-.572a2.191,2.191,0,0,1,1.156-1.531,10.477,10.477,0,0,1,2.814-.658c2.049-.293,1.978-.273,2.171-.637a3.031,3.031,0,0,1,2.721-1.461,4.636,4.636,0,0,1,1.62.313l.505.174.347-.154a6.8,6.8,0,0,1,1.854-.508,3.3,3.3,0,0,1,2.631,1.045,16.092,16.092,0,0,0,1.969,1.6c.252.148.31.16.383.083.047-.05,2.35-3.309,5.118-7.243s5.059-7.181,5.093-7.217c.123-.132.729-.071,1.12.112a2.706,2.706,0,0,1,1.2,1.145c.107.28.106.3-.017.469-2.313,3.188-9.99,13.926-9.99,13.973a4.154,4.154,0,0,0,1.41.53,9.805,9.805,0,0,1,.961.322,2.938,2.938,0,0,1,1.045.977,3.06,3.06,0,0,0,.992.748,16.418,16.418,0,0,1,1.84,1.164l.38.288,2.309-1.35c1.27-.743,4.92-2.883,8.112-4.756l5.8-3.405.191.108a3.826,3.826,0,0,1,.543.448,2.1,2.1,0,0,1,.7,1.519l0,.418-7.9,4.471c-4.346,2.459-7.939,4.494-7.983,4.524-.062.04-.05.113.049.307a4.746,4.746,0,0,1,.426,2.363,4.049,4.049,0,0,1-.422,2.226,10.14,10.14,0,0,0-.362,1.022,22.138,22.138,0,0,1-5.1,8.478,11.988,11.988,0,0,1-4.139,2.907l-.894.425,0,2.186-.974.238a24.234,24.234,0,0,1-6.3.616c-.884-.006-1.725-.02-1.869-.032Z" transform="translate(-265.475 -37.295)"/>
        </g>
      </g>
      <g id="Group_1-34" data-name="Group 1" transform="translate(1092 303)">
        <text id="家庭-34" data-name="家庭" transform="translate(143 111)" font-size="41" font-family="YuGothicUI-Semibold, Yu Gothic UI" font-weight="600"><tspan x="0" y="0">家庭</tspan></text>
        <text id="料理-34" data-name="料理" transform="translate(288 111)" font-size="41" font-family="YuGothicUI-Semibold, Yu Gothic UI" font-weight="600"><tspan x="0" y="0">料理</tspan></text>
        <g id="drawing-1-24" data-name="drawing-1" transform="translate(230.795 73.395)">
          <path id="Path_1-24" data-name="Path 1" d="M282.411,79.8a27.931,27.931,0,0,1-5.064-.91L277,78.8l-.036-2.186-.53-.207a13.451,13.451,0,0,1-4.731-3.125,24.338,24.338,0,0,1-4.479-6.781,11.112,11.112,0,0,1-.822-2c-.129-.451-.365-1.227-.525-1.725a5.238,5.238,0,0,1-.1-3.794A7.95,7.95,0,0,1,269.752,55a11.3,11.3,0,0,1,2.266-.867c.824-.2.828-.207.877-.572a2.191,2.191,0,0,1,1.156-1.531,10.477,10.477,0,0,1,2.814-.658c2.049-.293,1.978-.273,2.171-.637a3.031,3.031,0,0,1,2.721-1.461,4.636,4.636,0,0,1,1.62.313l.505.174.347-.154a6.8,6.8,0,0,1,1.854-.508,3.3,3.3,0,0,1,2.631,1.045,16.092,16.092,0,0,0,1.969,1.6c.252.148.31.16.383.083.047-.05,2.35-3.309,5.118-7.243s5.059-7.181,5.093-7.217c.123-.132.729-.071,1.12.112a2.706,2.706,0,0,1,1.2,1.145c.107.28.106.3-.017.469-2.313,3.188-9.99,13.926-9.99,13.973a4.154,4.154,0,0,0,1.41.53,9.805,9.805,0,0,1,.961.322,2.938,2.938,0,0,1,1.045.977,3.06,3.06,0,0,0,.992.748,16.418,16.418,0,0,1,1.84,1.164l.38.288,2.309-1.35c1.27-.743,4.92-2.883,8.112-4.756l5.8-3.405.191.108a3.826,3.826,0,0,1,.543.448,2.1,2.1,0,0,1,.7,1.519l0,.418-7.9,4.471c-4.346,2.459-7.939,4.494-7.983,4.524-.062.04-.05.113.049.307a4.746,4.746,0,0,1,.426,2.363,4.049,4.049,0,0,1-.422,2.226,10.14,10.14,0,0,0-.362,1.022,22.138,22.138,0,0,1-5.1,8.478,11.988,11.988,0,0,1-4.139,2.907l-.894.425,0,2.186-.974.238a24.234,24.234,0,0,1-6.3.616c-.884-.006-1.725-.02-1.869-.032Z" transform="translate(-265.475 -37.295)"/>
        </g>
      </g>
      <g id="Group_1-35" data-name="Group 1" transform="translate(-143 377)">
        <text id="家庭-35" data-name="家庭" transform="translate(143 111)" font-size="41" font-family="YuGothicUI-Semibold, Yu Gothic UI" font-weight="600"><tspan x="0" y="0">家庭</tspan></text>
        <text id="料理-35" data-name="料理" transform="translate(288 111)" font-size="41" font-family="YuGothicUI-Semibold, Yu Gothic UI" font-weight="600"><tspan x="0" y="0">料理</tspan></text>
        <g id="drawing-1-25" data-name="drawing-1" transform="translate(230.795 73.395)">
          <path id="Path_1-25" data-name="Path 1" d="M282.411,79.8a27.931,27.931,0,0,1-5.064-.91L277,78.8l-.036-2.186-.53-.207a13.451,13.451,0,0,1-4.731-3.125,24.338,24.338,0,0,1-4.479-6.781,11.112,11.112,0,0,1-.822-2c-.129-.451-.365-1.227-.525-1.725a5.238,5.238,0,0,1-.1-3.794A7.95,7.95,0,0,1,269.752,55a11.3,11.3,0,0,1,2.266-.867c.824-.2.828-.207.877-.572a2.191,2.191,0,0,1,1.156-1.531,10.477,10.477,0,0,1,2.814-.658c2.049-.293,1.978-.273,2.171-.637a3.031,3.031,0,0,1,2.721-1.461,4.636,4.636,0,0,1,1.62.313l.505.174.347-.154a6.8,6.8,0,0,1,1.854-.508,3.3,3.3,0,0,1,2.631,1.045,16.092,16.092,0,0,0,1.969,1.6c.252.148.31.16.383.083.047-.05,2.35-3.309,5.118-7.243s5.059-7.181,5.093-7.217c.123-.132.729-.071,1.12.112a2.706,2.706,0,0,1,1.2,1.145c.107.28.106.3-.017.469-2.313,3.188-9.99,13.926-9.99,13.973a4.154,4.154,0,0,0,1.41.53,9.805,9.805,0,0,1,.961.322,2.938,2.938,0,0,1,1.045.977,3.06,3.06,0,0,0,.992.748,16.418,16.418,0,0,1,1.84,1.164l.38.288,2.309-1.35c1.27-.743,4.92-2.883,8.112-4.756l5.8-3.405.191.108a3.826,3.826,0,0,1,.543.448,2.1,2.1,0,0,1,.7,1.519l0,.418-7.9,4.471c-4.346,2.459-7.939,4.494-7.983,4.524-.062.04-.05.113.049.307a4.746,4.746,0,0,1,.426,2.363,4.049,4.049,0,0,1-.422,2.226,10.14,10.14,0,0,0-.362,1.022,22.138,22.138,0,0,1-5.1,8.478,11.988,11.988,0,0,1-4.139,2.907l-.894.425,0,2.186-.974.238a24.234,24.234,0,0,1-6.3.616c-.884-.006-1.725-.02-1.869-.032Z" transform="translate(-265.475 -37.295)"/>
        </g>
      </g>
      <g id="Group_1-36" data-name="Group 1" transform="translate(351 377)">
        <text id="家庭-36" data-name="家庭" transform="translate(143 111)" font-size="41" font-family="YuGothicUI-Semibold, Yu Gothic UI" font-weight="600"><tspan x="0" y="0">家庭</tspan></text>
        <text id="料理-36" data-name="料理" transform="translate(288 111)" font-size="41" font-family="YuGothicUI-Semibold, Yu Gothic UI" font-weight="600"><tspan x="0" y="0">料理</tspan></text>
        <g id="drawing-1-26" data-name="drawing-1" transform="translate(230.795 73.395)">
          <path id="Path_1-26" data-name="Path 1" d="M282.411,79.8a27.931,27.931,0,0,1-5.064-.91L277,78.8l-.036-2.186-.53-.207a13.451,13.451,0,0,1-4.731-3.125,24.338,24.338,0,0,1-4.479-6.781,11.112,11.112,0,0,1-.822-2c-.129-.451-.365-1.227-.525-1.725a5.238,5.238,0,0,1-.1-3.794A7.95,7.95,0,0,1,269.752,55a11.3,11.3,0,0,1,2.266-.867c.824-.2.828-.207.877-.572a2.191,2.191,0,0,1,1.156-1.531,10.477,10.477,0,0,1,2.814-.658c2.049-.293,1.978-.273,2.171-.637a3.031,3.031,0,0,1,2.721-1.461,4.636,4.636,0,0,1,1.62.313l.505.174.347-.154a6.8,6.8,0,0,1,1.854-.508,3.3,3.3,0,0,1,2.631,1.045,16.092,16.092,0,0,0,1.969,1.6c.252.148.31.16.383.083.047-.05,2.35-3.309,5.118-7.243s5.059-7.181,5.093-7.217c.123-.132.729-.071,1.12.112a2.706,2.706,0,0,1,1.2,1.145c.107.28.106.3-.017.469-2.313,3.188-9.99,13.926-9.99,13.973a4.154,4.154,0,0,0,1.41.53,9.805,9.805,0,0,1,.961.322,2.938,2.938,0,0,1,1.045.977,3.06,3.06,0,0,0,.992.748,16.418,16.418,0,0,1,1.84,1.164l.38.288,2.309-1.35c1.27-.743,4.92-2.883,8.112-4.756l5.8-3.405.191.108a3.826,3.826,0,0,1,.543.448,2.1,2.1,0,0,1,.7,1.519l0,.418-7.9,4.471c-4.346,2.459-7.939,4.494-7.983,4.524-.062.04-.05.113.049.307a4.746,4.746,0,0,1,.426,2.363,4.049,4.049,0,0,1-.422,2.226,10.14,10.14,0,0,0-.362,1.022,22.138,22.138,0,0,1-5.1,8.478,11.988,11.988,0,0,1-4.139,2.907l-.894.425,0,2.186-.974.238a24.234,24.234,0,0,1-6.3.616c-.884-.006-1.725-.02-1.869-.032Z" transform="translate(-265.475 -37.295)"/>
        </g>
      </g>
      <g id="Group_1-37" data-name="Group 1" transform="translate(845 377)">
        <text id="家庭-37" data-name="家庭" transform="translate(143 111)" font-size="41" font-family="YuGothicUI-Semibold, Yu Gothic UI" font-weight="600"><tspan x="0" y="0">家庭</tspan></text>
        <text id="料理-37" data-name="料理" transform="translate(288 111)" font-size="41" font-family="YuGothicUI-Semibold, Yu Gothic UI" font-weight="600"><tspan x="0" y="0">料理</tspan></text>
        <g id="drawing-1-27" data-name="drawing-1" transform="translate(230.795 73.395)">
          <path id="Path_1-27" data-name="Path 1" d="M282.411,79.8a27.931,27.931,0,0,1-5.064-.91L277,78.8l-.036-2.186-.53-.207a13.451,13.451,0,0,1-4.731-3.125,24.338,24.338,0,0,1-4.479-6.781,11.112,11.112,0,0,1-.822-2c-.129-.451-.365-1.227-.525-1.725a5.238,5.238,0,0,1-.1-3.794A7.95,7.95,0,0,1,269.752,55a11.3,11.3,0,0,1,2.266-.867c.824-.2.828-.207.877-.572a2.191,2.191,0,0,1,1.156-1.531,10.477,10.477,0,0,1,2.814-.658c2.049-.293,1.978-.273,2.171-.637a3.031,3.031,0,0,1,2.721-1.461,4.636,4.636,0,0,1,1.62.313l.505.174.347-.154a6.8,6.8,0,0,1,1.854-.508,3.3,3.3,0,0,1,2.631,1.045,16.092,16.092,0,0,0,1.969,1.6c.252.148.31.16.383.083.047-.05,2.35-3.309,5.118-7.243s5.059-7.181,5.093-7.217c.123-.132.729-.071,1.12.112a2.706,2.706,0,0,1,1.2,1.145c.107.28.106.3-.017.469-2.313,3.188-9.99,13.926-9.99,13.973a4.154,4.154,0,0,0,1.41.53,9.805,9.805,0,0,1,.961.322,2.938,2.938,0,0,1,1.045.977,3.06,3.06,0,0,0,.992.748,16.418,16.418,0,0,1,1.84,1.164l.38.288,2.309-1.35c1.27-.743,4.92-2.883,8.112-4.756l5.8-3.405.191.108a3.826,3.826,0,0,1,.543.448,2.1,2.1,0,0,1,.7,1.519l0,.418-7.9,4.471c-4.346,2.459-7.939,4.494-7.983,4.524-.062.04-.05.113.049.307a4.746,4.746,0,0,1,.426,2.363,4.049,4.049,0,0,1-.422,2.226,10.14,10.14,0,0,0-.362,1.022,22.138,22.138,0,0,1-5.1,8.478,11.988,11.988,0,0,1-4.139,2.907l-.894.425,0,2.186-.974.238a24.234,24.234,0,0,1-6.3.616c-.884-.006-1.725-.02-1.869-.032Z" transform="translate(-265.475 -37.295)"/>
        </g>
      </g>
      <g id="Group_1-38" data-name="Group 1" transform="translate(1092 377)">
        <text id="家庭-38" data-name="家庭" transform="translate(143 111)" font-size="41" font-family="YuGothicUI-Semibold, Yu Gothic UI" font-weight="600"><tspan x="0" y="0">家庭</tspan></text>
        <text id="料理-38" data-name="料理" transform="translate(288 111)" font-size="41" font-family="YuGothicUI-Semibold, Yu Gothic UI" font-weight="600"><tspan x="0" y="0">料理</tspan></text>
        <g id="drawing-1-28" data-name="drawing-1" transform="translate(230.795 73.395)">
          <path id="Path_1-28" data-name="Path 1" d="M282.411,79.8a27.931,27.931,0,0,1-5.064-.91L277,78.8l-.036-2.186-.53-.207a13.451,13.451,0,0,1-4.731-3.125,24.338,24.338,0,0,1-4.479-6.781,11.112,11.112,0,0,1-.822-2c-.129-.451-.365-1.227-.525-1.725a5.238,5.238,0,0,1-.1-3.794A7.95,7.95,0,0,1,269.752,55a11.3,11.3,0,0,1,2.266-.867c.824-.2.828-.207.877-.572a2.191,2.191,0,0,1,1.156-1.531,10.477,10.477,0,0,1,2.814-.658c2.049-.293,1.978-.273,2.171-.637a3.031,3.031,0,0,1,2.721-1.461,4.636,4.636,0,0,1,1.62.313l.505.174.347-.154a6.8,6.8,0,0,1,1.854-.508,3.3,3.3,0,0,1,2.631,1.045,16.092,16.092,0,0,0,1.969,1.6c.252.148.31.16.383.083.047-.05,2.35-3.309,5.118-7.243s5.059-7.181,5.093-7.217c.123-.132.729-.071,1.12.112a2.706,2.706,0,0,1,1.2,1.145c.107.28.106.3-.017.469-2.313,3.188-9.99,13.926-9.99,13.973a4.154,4.154,0,0,0,1.41.53,9.805,9.805,0,0,1,.961.322,2.938,2.938,0,0,1,1.045.977,3.06,3.06,0,0,0,.992.748,16.418,16.418,0,0,1,1.84,1.164l.38.288,2.309-1.35c1.27-.743,4.92-2.883,8.112-4.756l5.8-3.405.191.108a3.826,3.826,0,0,1,.543.448,2.1,2.1,0,0,1,.7,1.519l0,.418-7.9,4.471c-4.346,2.459-7.939,4.494-7.983,4.524-.062.04-.05.113.049.307a4.746,4.746,0,0,1,.426,2.363,4.049,4.049,0,0,1-.422,2.226,10.14,10.14,0,0,0-.362,1.022,22.138,22.138,0,0,1-5.1,8.478,11.988,11.988,0,0,1-4.139,2.907l-.894.425,0,2.186-.974.238a24.234,24.234,0,0,1-6.3.616c-.884-.006-1.725-.02-1.869-.032Z" transform="translate(-265.475 -37.295)"/>
        </g>
      </g>
      <g id="Group_1-39" data-name="Group 1" transform="translate(-143 451)">
        <text id="家庭-39" data-name="家庭" transform="translate(143 111)" font-size="41" font-family="YuGothicUI-Semibold, Yu Gothic UI" font-weight="600"><tspan x="0" y="0">家庭</tspan></text>
        <text id="料理-39" data-name="料理" transform="translate(288 111)" font-size="41" font-family="YuGothicUI-Semibold, Yu Gothic UI" font-weight="600"><tspan x="0" y="0">料理</tspan></text>
        <g id="drawing-1-29" data-name="drawing-1" transform="translate(230.795 73.395)">
          <path id="Path_1-29" data-name="Path 1" d="M282.411,79.8a27.931,27.931,0,0,1-5.064-.91L277,78.8l-.036-2.186-.53-.207a13.451,13.451,0,0,1-4.731-3.125,24.338,24.338,0,0,1-4.479-6.781,11.112,11.112,0,0,1-.822-2c-.129-.451-.365-1.227-.525-1.725a5.238,5.238,0,0,1-.1-3.794A7.95,7.95,0,0,1,269.752,55a11.3,11.3,0,0,1,2.266-.867c.824-.2.828-.207.877-.572a2.191,2.191,0,0,1,1.156-1.531,10.477,10.477,0,0,1,2.814-.658c2.049-.293,1.978-.273,2.171-.637a3.031,3.031,0,0,1,2.721-1.461,4.636,4.636,0,0,1,1.62.313l.505.174.347-.154a6.8,6.8,0,0,1,1.854-.508,3.3,3.3,0,0,1,2.631,1.045,16.092,16.092,0,0,0,1.969,1.6c.252.148.31.16.383.083.047-.05,2.35-3.309,5.118-7.243s5.059-7.181,5.093-7.217c.123-.132.729-.071,1.12.112a2.706,2.706,0,0,1,1.2,1.145c.107.28.106.3-.017.469-2.313,3.188-9.99,13.926-9.99,13.973a4.154,4.154,0,0,0,1.41.53,9.805,9.805,0,0,1,.961.322,2.938,2.938,0,0,1,1.045.977,3.06,3.06,0,0,0,.992.748,16.418,16.418,0,0,1,1.84,1.164l.38.288,2.309-1.35c1.27-.743,4.92-2.883,8.112-4.756l5.8-3.405.191.108a3.826,3.826,0,0,1,.543.448,2.1,2.1,0,0,1,.7,1.519l0,.418-7.9,4.471c-4.346,2.459-7.939,4.494-7.983,4.524-.062.04-.05.113.049.307a4.746,4.746,0,0,1,.426,2.363,4.049,4.049,0,0,1-.422,2.226,10.14,10.14,0,0,0-.362,1.022,22.138,22.138,0,0,1-5.1,8.478,11.988,11.988,0,0,1-4.139,2.907l-.894.425,0,2.186-.974.238a24.234,24.234,0,0,1-6.3.616c-.884-.006-1.725-.02-1.869-.032Z" transform="translate(-265.475 -37.295)"/>
        </g>
      </g>
      <g id="Group_1-40" data-name="Group 1" transform="translate(351 451)">
        <text id="家庭-40" data-name="家庭" transform="translate(143 111)" font-size="41" font-family="YuGothicUI-Semibold, Yu Gothic UI" font-weight="600"><tspan x="0" y="0">家庭</tspan></text>
        <text id="料理-40" data-name="料理" transform="translate(288 111)" font-size="41" font-family="YuGothicUI-Semibold, Yu Gothic UI" font-weight="600"><tspan x="0" y="0">料理</tspan></text>
        <g id="drawing-1-30" data-name="drawing-1" transform="translate(230.795 73.395)">
          <path id="Path_1-30" data-name="Path 1" d="M282.411,79.8a27.931,27.931,0,0,1-5.064-.91L277,78.8l-.036-2.186-.53-.207a13.451,13.451,0,0,1-4.731-3.125,24.338,24.338,0,0,1-4.479-6.781,11.112,11.112,0,0,1-.822-2c-.129-.451-.365-1.227-.525-1.725a5.238,5.238,0,0,1-.1-3.794A7.95,7.95,0,0,1,269.752,55a11.3,11.3,0,0,1,2.266-.867c.824-.2.828-.207.877-.572a2.191,2.191,0,0,1,1.156-1.531,10.477,10.477,0,0,1,2.814-.658c2.049-.293,1.978-.273,2.171-.637a3.031,3.031,0,0,1,2.721-1.461,4.636,4.636,0,0,1,1.62.313l.505.174.347-.154a6.8,6.8,0,0,1,1.854-.508,3.3,3.3,0,0,1,2.631,1.045,16.092,16.092,0,0,0,1.969,1.6c.252.148.31.16.383.083.047-.05,2.35-3.309,5.118-7.243s5.059-7.181,5.093-7.217c.123-.132.729-.071,1.12.112a2.706,2.706,0,0,1,1.2,1.145c.107.28.106.3-.017.469-2.313,3.188-9.99,13.926-9.99,13.973a4.154,4.154,0,0,0,1.41.53,9.805,9.805,0,0,1,.961.322,2.938,2.938,0,0,1,1.045.977,3.06,3.06,0,0,0,.992.748,16.418,16.418,0,0,1,1.84,1.164l.38.288,2.309-1.35c1.27-.743,4.92-2.883,8.112-4.756l5.8-3.405.191.108a3.826,3.826,0,0,1,.543.448,2.1,2.1,0,0,1,.7,1.519l0,.418-7.9,4.471c-4.346,2.459-7.939,4.494-7.983,4.524-.062.04-.05.113.049.307a4.746,4.746,0,0,1,.426,2.363,4.049,4.049,0,0,1-.422,2.226,10.14,10.14,0,0,0-.362,1.022,22.138,22.138,0,0,1-5.1,8.478,11.988,11.988,0,0,1-4.139,2.907l-.894.425,0,2.186-.974.238a24.234,24.234,0,0,1-6.3.616c-.884-.006-1.725-.02-1.869-.032Z" transform="translate(-265.475 -37.295)"/>
        </g>
      </g>
      <g id="Group_1-41" data-name="Group 1" transform="translate(845 451)">
        <text id="家庭-41" data-name="家庭" transform="translate(143 111)" font-size="41" font-family="YuGothicUI-Semibold, Yu Gothic UI" font-weight="600"><tspan x="0" y="0">家庭</tspan></text>
        <text id="料理-41" data-name="料理" transform="translate(288 111)" font-size="41" font-family="YuGothicUI-Semibold, Yu Gothic UI" font-weight="600"><tspan x="0" y="0">料理</tspan></text>
        <g id="drawing-1-31" data-name="drawing-1" transform="translate(230.795 73.395)">
          <path id="Path_1-31" data-name="Path 1" d="M282.411,79.8a27.931,27.931,0,0,1-5.064-.91L277,78.8l-.036-2.186-.53-.207a13.451,13.451,0,0,1-4.731-3.125,24.338,24.338,0,0,1-4.479-6.781,11.112,11.112,0,0,1-.822-2c-.129-.451-.365-1.227-.525-1.725a5.238,5.238,0,0,1-.1-3.794A7.95,7.95,0,0,1,269.752,55a11.3,11.3,0,0,1,2.266-.867c.824-.2.828-.207.877-.572a2.191,2.191,0,0,1,1.156-1.531,10.477,10.477,0,0,1,2.814-.658c2.049-.293,1.978-.273,2.171-.637a3.031,3.031,0,0,1,2.721-1.461,4.636,4.636,0,0,1,1.62.313l.505.174.347-.154a6.8,6.8,0,0,1,1.854-.508,3.3,3.3,0,0,1,2.631,1.045,16.092,16.092,0,0,0,1.969,1.6c.252.148.31.16.383.083.047-.05,2.35-3.309,5.118-7.243s5.059-7.181,5.093-7.217c.123-.132.729-.071,1.12.112a2.706,2.706,0,0,1,1.2,1.145c.107.28.106.3-.017.469-2.313,3.188-9.99,13.926-9.99,13.973a4.154,4.154,0,0,0,1.41.53,9.805,9.805,0,0,1,.961.322,2.938,2.938,0,0,1,1.045.977,3.06,3.06,0,0,0,.992.748,16.418,16.418,0,0,1,1.84,1.164l.38.288,2.309-1.35c1.27-.743,4.92-2.883,8.112-4.756l5.8-3.405.191.108a3.826,3.826,0,0,1,.543.448,2.1,2.1,0,0,1,.7,1.519l0,.418-7.9,4.471c-4.346,2.459-7.939,4.494-7.983,4.524-.062.04-.05.113.049.307a4.746,4.746,0,0,1,.426,2.363,4.049,4.049,0,0,1-.422,2.226,10.14,10.14,0,0,0-.362,1.022,22.138,22.138,0,0,1-5.1,8.478,11.988,11.988,0,0,1-4.139,2.907l-.894.425,0,2.186-.974.238a24.234,24.234,0,0,1-6.3.616c-.884-.006-1.725-.02-1.869-.032Z" transform="translate(-265.475 -37.295)"/>
        </g>
      </g>
      <g id="Group_1-42" data-name="Group 1" transform="translate(1092 451)">
        <text id="家庭-42" data-name="家庭" transform="translate(143 111)" font-size="41" font-family="YuGothicUI-Semibold, Yu Gothic UI" font-weight="600"><tspan x="0" y="0">家庭</tspan></text>
        <text id="料理-42" data-name="料理" transform="translate(288 111)" font-size="41" font-family="YuGothicUI-Semibold, Yu Gothic UI" font-weight="600"><tspan x="0" y="0">料理</tspan></text>
        <g id="drawing-1-32" data-name="drawing-1" transform="translate(230.795 73.395)">
          <path id="Path_1-32" data-name="Path 1" d="M282.411,79.8a27.931,27.931,0,0,1-5.064-.91L277,78.8l-.036-2.186-.53-.207a13.451,13.451,0,0,1-4.731-3.125,24.338,24.338,0,0,1-4.479-6.781,11.112,11.112,0,0,1-.822-2c-.129-.451-.365-1.227-.525-1.725a5.238,5.238,0,0,1-.1-3.794A7.95,7.95,0,0,1,269.752,55a11.3,11.3,0,0,1,2.266-.867c.824-.2.828-.207.877-.572a2.191,2.191,0,0,1,1.156-1.531,10.477,10.477,0,0,1,2.814-.658c2.049-.293,1.978-.273,2.171-.637a3.031,3.031,0,0,1,2.721-1.461,4.636,4.636,0,0,1,1.62.313l.505.174.347-.154a6.8,6.8,0,0,1,1.854-.508,3.3,3.3,0,0,1,2.631,1.045,16.092,16.092,0,0,0,1.969,1.6c.252.148.31.16.383.083.047-.05,2.35-3.309,5.118-7.243s5.059-7.181,5.093-7.217c.123-.132.729-.071,1.12.112a2.706,2.706,0,0,1,1.2,1.145c.107.28.106.3-.017.469-2.313,3.188-9.99,13.926-9.99,13.973a4.154,4.154,0,0,0,1.41.53,9.805,9.805,0,0,1,.961.322,2.938,2.938,0,0,1,1.045.977,3.06,3.06,0,0,0,.992.748,16.418,16.418,0,0,1,1.84,1.164l.38.288,2.309-1.35c1.27-.743,4.92-2.883,8.112-4.756l5.8-3.405.191.108a3.826,3.826,0,0,1,.543.448,2.1,2.1,0,0,1,.7,1.519l0,.418-7.9,4.471c-4.346,2.459-7.939,4.494-7.983,4.524-.062.04-.05.113.049.307a4.746,4.746,0,0,1,.426,2.363,4.049,4.049,0,0,1-.422,2.226,10.14,10.14,0,0,0-.362,1.022,22.138,22.138,0,0,1-5.1,8.478,11.988,11.988,0,0,1-4.139,2.907l-.894.425,0,2.186-.974.238a24.234,24.234,0,0,1-6.3.616c-.884-.006-1.725-.02-1.869-.032Z" transform="translate(-265.475 -37.295)"/>
        </g>
      </g>
      <g id="Group_1-43" data-name="Group 1" transform="translate(-143 525)">
        <text id="家庭-43" data-name="家庭" transform="translate(143 111)" font-size="41" font-family="YuGothicUI-Semibold, Yu Gothic UI" font-weight="600"><tspan x="0" y="0">家庭</tspan></text>
        <text id="料理-43" data-name="料理" transform="translate(288 111)" font-size="41" font-family="YuGothicUI-Semibold, Yu Gothic UI" font-weight="600"><tspan x="0" y="0">料理</tspan></text>
        <g id="drawing-1-33" data-name="drawing-1" transform="translate(230.795 73.395)">
          <path id="Path_1-33" data-name="Path 1" d="M282.411,79.8a27.931,27.931,0,0,1-5.064-.91L277,78.8l-.036-2.186-.53-.207a13.451,13.451,0,0,1-4.731-3.125,24.338,24.338,0,0,1-4.479-6.781,11.112,11.112,0,0,1-.822-2c-.129-.451-.365-1.227-.525-1.725a5.238,5.238,0,0,1-.1-3.794A7.95,7.95,0,0,1,269.752,55a11.3,11.3,0,0,1,2.266-.867c.824-.2.828-.207.877-.572a2.191,2.191,0,0,1,1.156-1.531,10.477,10.477,0,0,1,2.814-.658c2.049-.293,1.978-.273,2.171-.637a3.031,3.031,0,0,1,2.721-1.461,4.636,4.636,0,0,1,1.62.313l.505.174.347-.154a6.8,6.8,0,0,1,1.854-.508,3.3,3.3,0,0,1,2.631,1.045,16.092,16.092,0,0,0,1.969,1.6c.252.148.31.16.383.083.047-.05,2.35-3.309,5.118-7.243s5.059-7.181,5.093-7.217c.123-.132.729-.071,1.12.112a2.706,2.706,0,0,1,1.2,1.145c.107.28.106.3-.017.469-2.313,3.188-9.99,13.926-9.99,13.973a4.154,4.154,0,0,0,1.41.53,9.805,9.805,0,0,1,.961.322,2.938,2.938,0,0,1,1.045.977,3.06,3.06,0,0,0,.992.748,16.418,16.418,0,0,1,1.84,1.164l.38.288,2.309-1.35c1.27-.743,4.92-2.883,8.112-4.756l5.8-3.405.191.108a3.826,3.826,0,0,1,.543.448,2.1,2.1,0,0,1,.7,1.519l0,.418-7.9,4.471c-4.346,2.459-7.939,4.494-7.983,4.524-.062.04-.05.113.049.307a4.746,4.746,0,0,1,.426,2.363,4.049,4.049,0,0,1-.422,2.226,10.14,10.14,0,0,0-.362,1.022,22.138,22.138,0,0,1-5.1,8.478,11.988,11.988,0,0,1-4.139,2.907l-.894.425,0,2.186-.974.238a24.234,24.234,0,0,1-6.3.616c-.884-.006-1.725-.02-1.869-.032Z" transform="translate(-265.475 -37.295)"/>
        </g>
      </g>
      <g id="Group_1-44" data-name="Group 1" transform="translate(351 525)">
        <text id="家庭-44" data-name="家庭" transform="translate(143 111)" font-size="41" font-family="YuGothicUI-Semibold, Yu Gothic UI" font-weight="600"><tspan x="0" y="0">家庭</tspan></text>
        <text id="料理-44" data-name="料理" transform="translate(288 111)" font-size="41" font-family="YuGothicUI-Semibold, Yu Gothic UI" font-weight="600"><tspan x="0" y="0">料理</tspan></text>
        <g id="drawing-1-34" data-name="drawing-1" transform="translate(230.795 73.395)">
          <path id="Path_1-34" data-name="Path 1" d="M282.411,79.8a27.931,27.931,0,0,1-5.064-.91L277,78.8l-.036-2.186-.53-.207a13.451,13.451,0,0,1-4.731-3.125,24.338,24.338,0,0,1-4.479-6.781,11.112,11.112,0,0,1-.822-2c-.129-.451-.365-1.227-.525-1.725a5.238,5.238,0,0,1-.1-3.794A7.95,7.95,0,0,1,269.752,55a11.3,11.3,0,0,1,2.266-.867c.824-.2.828-.207.877-.572a2.191,2.191,0,0,1,1.156-1.531,10.477,10.477,0,0,1,2.814-.658c2.049-.293,1.978-.273,2.171-.637a3.031,3.031,0,0,1,2.721-1.461,4.636,4.636,0,0,1,1.62.313l.505.174.347-.154a6.8,6.8,0,0,1,1.854-.508,3.3,3.3,0,0,1,2.631,1.045,16.092,16.092,0,0,0,1.969,1.6c.252.148.31.16.383.083.047-.05,2.35-3.309,5.118-7.243s5.059-7.181,5.093-7.217c.123-.132.729-.071,1.12.112a2.706,2.706,0,0,1,1.2,1.145c.107.28.106.3-.017.469-2.313,3.188-9.99,13.926-9.99,13.973a4.154,4.154,0,0,0,1.41.53,9.805,9.805,0,0,1,.961.322,2.938,2.938,0,0,1,1.045.977,3.06,3.06,0,0,0,.992.748,16.418,16.418,0,0,1,1.84,1.164l.38.288,2.309-1.35c1.27-.743,4.92-2.883,8.112-4.756l5.8-3.405.191.108a3.826,3.826,0,0,1,.543.448,2.1,2.1,0,0,1,.7,1.519l0,.418-7.9,4.471c-4.346,2.459-7.939,4.494-7.983,4.524-.062.04-.05.113.049.307a4.746,4.746,0,0,1,.426,2.363,4.049,4.049,0,0,1-.422,2.226,10.14,10.14,0,0,0-.362,1.022,22.138,22.138,0,0,1-5.1,8.478,11.988,11.988,0,0,1-4.139,2.907l-.894.425,0,2.186-.974.238a24.234,24.234,0,0,1-6.3.616c-.884-.006-1.725-.02-1.869-.032Z" transform="translate(-265.475 -37.295)"/>
        </g>
      </g>
      <g id="Group_1-45" data-name="Group 1" transform="translate(845 525)">
        <text id="家庭-45" data-name="家庭" transform="translate(143 111)" font-size="41" font-family="YuGothicUI-Semibold, Yu Gothic UI" font-weight="600"><tspan x="0" y="0">家庭</tspan></text>
        <text id="料理-45" data-name="料理" transform="translate(288 111)" font-size="41" font-family="YuGothicUI-Semibold, Yu Gothic UI" font-weight="600"><tspan x="0" y="0">料理</tspan></text>
        <g id="drawing-1-35" data-name="drawing-1" transform="translate(230.795 73.395)">
          <path id="Path_1-35" data-name="Path 1" d="M282.411,79.8a27.931,27.931,0,0,1-5.064-.91L277,78.8l-.036-2.186-.53-.207a13.451,13.451,0,0,1-4.731-3.125,24.338,24.338,0,0,1-4.479-6.781,11.112,11.112,0,0,1-.822-2c-.129-.451-.365-1.227-.525-1.725a5.238,5.238,0,0,1-.1-3.794A7.95,7.95,0,0,1,269.752,55a11.3,11.3,0,0,1,2.266-.867c.824-.2.828-.207.877-.572a2.191,2.191,0,0,1,1.156-1.531,10.477,10.477,0,0,1,2.814-.658c2.049-.293,1.978-.273,2.171-.637a3.031,3.031,0,0,1,2.721-1.461,4.636,4.636,0,0,1,1.62.313l.505.174.347-.154a6.8,6.8,0,0,1,1.854-.508,3.3,3.3,0,0,1,2.631,1.045,16.092,16.092,0,0,0,1.969,1.6c.252.148.31.16.383.083.047-.05,2.35-3.309,5.118-7.243s5.059-7.181,5.093-7.217c.123-.132.729-.071,1.12.112a2.706,2.706,0,0,1,1.2,1.145c.107.28.106.3-.017.469-2.313,3.188-9.99,13.926-9.99,13.973a4.154,4.154,0,0,0,1.41.53,9.805,9.805,0,0,1,.961.322,2.938,2.938,0,0,1,1.045.977,3.06,3.06,0,0,0,.992.748,16.418,16.418,0,0,1,1.84,1.164l.38.288,2.309-1.35c1.27-.743,4.92-2.883,8.112-4.756l5.8-3.405.191.108a3.826,3.826,0,0,1,.543.448,2.1,2.1,0,0,1,.7,1.519l0,.418-7.9,4.471c-4.346,2.459-7.939,4.494-7.983,4.524-.062.04-.05.113.049.307a4.746,4.746,0,0,1,.426,2.363,4.049,4.049,0,0,1-.422,2.226,10.14,10.14,0,0,0-.362,1.022,22.138,22.138,0,0,1-5.1,8.478,11.988,11.988,0,0,1-4.139,2.907l-.894.425,0,2.186-.974.238a24.234,24.234,0,0,1-6.3.616c-.884-.006-1.725-.02-1.869-.032Z" transform="translate(-265.475 -37.295)"/>
        </g>
      </g>
      <g id="Group_1-46" data-name="Group 1" transform="translate(1092 525)">
        <text id="家庭-46" data-name="家庭" transform="translate(143 111)" font-size="41" font-family="YuGothicUI-Semibold, Yu Gothic UI" font-weight="600"><tspan x="0" y="0">家庭</tspan></text>
        <text id="料理-46" data-name="料理" transform="translate(288 111)" font-size="41" font-family="YuGothicUI-Semibold, Yu Gothic UI" font-weight="600"><tspan x="0" y="0">料理</tspan></text>
        <g id="drawing-1-36" data-name="drawing-1" transform="translate(230.795 73.395)">
          <path id="Path_1-36" data-name="Path 1" d="M282.411,79.8a27.931,27.931,0,0,1-5.064-.91L277,78.8l-.036-2.186-.53-.207a13.451,13.451,0,0,1-4.731-3.125,24.338,24.338,0,0,1-4.479-6.781,11.112,11.112,0,0,1-.822-2c-.129-.451-.365-1.227-.525-1.725a5.238,5.238,0,0,1-.1-3.794A7.95,7.95,0,0,1,269.752,55a11.3,11.3,0,0,1,2.266-.867c.824-.2.828-.207.877-.572a2.191,2.191,0,0,1,1.156-1.531,10.477,10.477,0,0,1,2.814-.658c2.049-.293,1.978-.273,2.171-.637a3.031,3.031,0,0,1,2.721-1.461,4.636,4.636,0,0,1,1.62.313l.505.174.347-.154a6.8,6.8,0,0,1,1.854-.508,3.3,3.3,0,0,1,2.631,1.045,16.092,16.092,0,0,0,1.969,1.6c.252.148.31.16.383.083.047-.05,2.35-3.309,5.118-7.243s5.059-7.181,5.093-7.217c.123-.132.729-.071,1.12.112a2.706,2.706,0,0,1,1.2,1.145c.107.28.106.3-.017.469-2.313,3.188-9.99,13.926-9.99,13.973a4.154,4.154,0,0,0,1.41.53,9.805,9.805,0,0,1,.961.322,2.938,2.938,0,0,1,1.045.977,3.06,3.06,0,0,0,.992.748,16.418,16.418,0,0,1,1.84,1.164l.38.288,2.309-1.35c1.27-.743,4.92-2.883,8.112-4.756l5.8-3.405.191.108a3.826,3.826,0,0,1,.543.448,2.1,2.1,0,0,1,.7,1.519l0,.418-7.9,4.471c-4.346,2.459-7.939,4.494-7.983,4.524-.062.04-.05.113.049.307a4.746,4.746,0,0,1,.426,2.363,4.049,4.049,0,0,1-.422,2.226,10.14,10.14,0,0,0-.362,1.022,22.138,22.138,0,0,1-5.1,8.478,11.988,11.988,0,0,1-4.139,2.907l-.894.425,0,2.186-.974.238a24.234,24.234,0,0,1-6.3.616c-.884-.006-1.725-.02-1.869-.032Z" transform="translate(-265.475 -37.295)"/>
        </g>
      </g>
      <g id="Group_1-47" data-name="Group 1" transform="translate(-143 599)">
        <text id="家庭-47" data-name="家庭" transform="translate(143 111)" font-size="41" font-family="YuGothicUI-Semibold, Yu Gothic UI" font-weight="600"><tspan x="0" y="0">家庭</tspan></text>
        <text id="料理-47" data-name="料理" transform="translate(288 111)" font-size="41" font-family="YuGothicUI-Semibold, Yu Gothic UI" font-weight="600"><tspan x="0" y="0">料理</tspan></text>
        <g id="drawing-1-37" data-name="drawing-1" transform="translate(230.795 73.395)">
          <path id="Path_1-37" data-name="Path 1" d="M282.411,79.8a27.931,27.931,0,0,1-5.064-.91L277,78.8l-.036-2.186-.53-.207a13.451,13.451,0,0,1-4.731-3.125,24.338,24.338,0,0,1-4.479-6.781,11.112,11.112,0,0,1-.822-2c-.129-.451-.365-1.227-.525-1.725a5.238,5.238,0,0,1-.1-3.794A7.95,7.95,0,0,1,269.752,55a11.3,11.3,0,0,1,2.266-.867c.824-.2.828-.207.877-.572a2.191,2.191,0,0,1,1.156-1.531,10.477,10.477,0,0,1,2.814-.658c2.049-.293,1.978-.273,2.171-.637a3.031,3.031,0,0,1,2.721-1.461,4.636,4.636,0,0,1,1.62.313l.505.174.347-.154a6.8,6.8,0,0,1,1.854-.508,3.3,3.3,0,0,1,2.631,1.045,16.092,16.092,0,0,0,1.969,1.6c.252.148.31.16.383.083.047-.05,2.35-3.309,5.118-7.243s5.059-7.181,5.093-7.217c.123-.132.729-.071,1.12.112a2.706,2.706,0,0,1,1.2,1.145c.107.28.106.3-.017.469-2.313,3.188-9.99,13.926-9.99,13.973a4.154,4.154,0,0,0,1.41.53,9.805,9.805,0,0,1,.961.322,2.938,2.938,0,0,1,1.045.977,3.06,3.06,0,0,0,.992.748,16.418,16.418,0,0,1,1.84,1.164l.38.288,2.309-1.35c1.27-.743,4.92-2.883,8.112-4.756l5.8-3.405.191.108a3.826,3.826,0,0,1,.543.448,2.1,2.1,0,0,1,.7,1.519l0,.418-7.9,4.471c-4.346,2.459-7.939,4.494-7.983,4.524-.062.04-.05.113.049.307a4.746,4.746,0,0,1,.426,2.363,4.049,4.049,0,0,1-.422,2.226,10.14,10.14,0,0,0-.362,1.022,22.138,22.138,0,0,1-5.1,8.478,11.988,11.988,0,0,1-4.139,2.907l-.894.425,0,2.186-.974.238a24.234,24.234,0,0,1-6.3.616c-.884-.006-1.725-.02-1.869-.032Z" transform="translate(-265.475 -37.295)"/>
        </g>
      </g>
      <g id="Group_1-48" data-name="Group 1" transform="translate(351 599)">
        <text id="家庭-48" data-name="家庭" transform="translate(143 111)" font-size="41" font-family="YuGothicUI-Semibold, Yu Gothic UI" font-weight="600"><tspan x="0" y="0">家庭</tspan></text>
        <text id="料理-48" data-name="料理" transform="translate(288 111)" font-size="41" font-family="YuGothicUI-Semibold, Yu Gothic UI" font-weight="600"><tspan x="0" y="0">料理</tspan></text>
        <g id="drawing-1-38" data-name="drawing-1" transform="translate(230.795 73.395)">
          <path id="Path_1-38" data-name="Path 1" d="M282.411,79.8a27.931,27.931,0,0,1-5.064-.91L277,78.8l-.036-2.186-.53-.207a13.451,13.451,0,0,1-4.731-3.125,24.338,24.338,0,0,1-4.479-6.781,11.112,11.112,0,0,1-.822-2c-.129-.451-.365-1.227-.525-1.725a5.238,5.238,0,0,1-.1-3.794A7.95,7.95,0,0,1,269.752,55a11.3,11.3,0,0,1,2.266-.867c.824-.2.828-.207.877-.572a2.191,2.191,0,0,1,1.156-1.531,10.477,10.477,0,0,1,2.814-.658c2.049-.293,1.978-.273,2.171-.637a3.031,3.031,0,0,1,2.721-1.461,4.636,4.636,0,0,1,1.62.313l.505.174.347-.154a6.8,6.8,0,0,1,1.854-.508,3.3,3.3,0,0,1,2.631,1.045,16.092,16.092,0,0,0,1.969,1.6c.252.148.31.16.383.083.047-.05,2.35-3.309,5.118-7.243s5.059-7.181,5.093-7.217c.123-.132.729-.071,1.12.112a2.706,2.706,0,0,1,1.2,1.145c.107.28.106.3-.017.469-2.313,3.188-9.99,13.926-9.99,13.973a4.154,4.154,0,0,0,1.41.53,9.805,9.805,0,0,1,.961.322,2.938,2.938,0,0,1,1.045.977,3.06,3.06,0,0,0,.992.748,16.418,16.418,0,0,1,1.84,1.164l.38.288,2.309-1.35c1.27-.743,4.92-2.883,8.112-4.756l5.8-3.405.191.108a3.826,3.826,0,0,1,.543.448,2.1,2.1,0,0,1,.7,1.519l0,.418-7.9,4.471c-4.346,2.459-7.939,4.494-7.983,4.524-.062.04-.05.113.049.307a4.746,4.746,0,0,1,.426,2.363,4.049,4.049,0,0,1-.422,2.226,10.14,10.14,0,0,0-.362,1.022,22.138,22.138,0,0,1-5.1,8.478,11.988,11.988,0,0,1-4.139,2.907l-.894.425,0,2.186-.974.238a24.234,24.234,0,0,1-6.3.616c-.884-.006-1.725-.02-1.869-.032Z" transform="translate(-265.475 -37.295)"/>
        </g>
      </g>
      <g id="Group_1-49" data-name="Group 1" transform="translate(845 599)">
        <text id="家庭-49" data-name="家庭" transform="translate(143 111)" font-size="41" font-family="YuGothicUI-Semibold, Yu Gothic UI" font-weight="600"><tspan x="0" y="0">家庭</tspan></text>
        <text id="料理-49" data-name="料理" transform="translate(288 111)" font-size="41" font-family="YuGothicUI-Semibold, Yu Gothic UI" font-weight="600"><tspan x="0" y="0">料理</tspan></text>
        <g id="drawing-1-39" data-name="drawing-1" transform="translate(230.795 73.395)">
          <path id="Path_1-39" data-name="Path 1" d="M282.411,79.8a27.931,27.931,0,0,1-5.064-.91L277,78.8l-.036-2.186-.53-.207a13.451,13.451,0,0,1-4.731-3.125,24.338,24.338,0,0,1-4.479-6.781,11.112,11.112,0,0,1-.822-2c-.129-.451-.365-1.227-.525-1.725a5.238,5.238,0,0,1-.1-3.794A7.95,7.95,0,0,1,269.752,55a11.3,11.3,0,0,1,2.266-.867c.824-.2.828-.207.877-.572a2.191,2.191,0,0,1,1.156-1.531,10.477,10.477,0,0,1,2.814-.658c2.049-.293,1.978-.273,2.171-.637a3.031,3.031,0,0,1,2.721-1.461,4.636,4.636,0,0,1,1.62.313l.505.174.347-.154a6.8,6.8,0,0,1,1.854-.508,3.3,3.3,0,0,1,2.631,1.045,16.092,16.092,0,0,0,1.969,1.6c.252.148.31.16.383.083.047-.05,2.35-3.309,5.118-7.243s5.059-7.181,5.093-7.217c.123-.132.729-.071,1.12.112a2.706,2.706,0,0,1,1.2,1.145c.107.28.106.3-.017.469-2.313,3.188-9.99,13.926-9.99,13.973a4.154,4.154,0,0,0,1.41.53,9.805,9.805,0,0,1,.961.322,2.938,2.938,0,0,1,1.045.977,3.06,3.06,0,0,0,.992.748,16.418,16.418,0,0,1,1.84,1.164l.38.288,2.309-1.35c1.27-.743,4.92-2.883,8.112-4.756l5.8-3.405.191.108a3.826,3.826,0,0,1,.543.448,2.1,2.1,0,0,1,.7,1.519l0,.418-7.9,4.471c-4.346,2.459-7.939,4.494-7.983,4.524-.062.04-.05.113.049.307a4.746,4.746,0,0,1,.426,2.363,4.049,4.049,0,0,1-.422,2.226,10.14,10.14,0,0,0-.362,1.022,22.138,22.138,0,0,1-5.1,8.478,11.988,11.988,0,0,1-4.139,2.907l-.894.425,0,2.186-.974.238a24.234,24.234,0,0,1-6.3.616c-.884-.006-1.725-.02-1.869-.032Z" transform="translate(-265.475 -37.295)"/>
        </g>
      </g>
      <g id="Group_1-50" data-name="Group 1" transform="translate(1092 599)">
        <text id="家庭-50" data-name="家庭" transform="translate(143 111)" font-size="41" font-family="YuGothicUI-Semibold, Yu Gothic UI" font-weight="600"><tspan x="0" y="0">家庭</tspan></text>
        <text id="料理-50" data-name="料理" transform="translate(288 111)" font-size="41" font-family="YuGothicUI-Semibold, Yu Gothic UI" font-weight="600"><tspan x="0" y="0">料理</tspan></text>
        <g id="drawing-1-40" data-name="drawing-1" transform="translate(230.795 73.395)">
          <path id="Path_1-40" data-name="Path 1" d="M282.411,79.8a27.931,27.931,0,0,1-5.064-.91L277,78.8l-.036-2.186-.53-.207a13.451,13.451,0,0,1-4.731-3.125,24.338,24.338,0,0,1-4.479-6.781,11.112,11.112,0,0,1-.822-2c-.129-.451-.365-1.227-.525-1.725a5.238,5.238,0,0,1-.1-3.794A7.95,7.95,0,0,1,269.752,55a11.3,11.3,0,0,1,2.266-.867c.824-.2.828-.207.877-.572a2.191,2.191,0,0,1,1.156-1.531,10.477,10.477,0,0,1,2.814-.658c2.049-.293,1.978-.273,2.171-.637a3.031,3.031,0,0,1,2.721-1.461,4.636,4.636,0,0,1,1.62.313l.505.174.347-.154a6.8,6.8,0,0,1,1.854-.508,3.3,3.3,0,0,1,2.631,1.045,16.092,16.092,0,0,0,1.969,1.6c.252.148.31.16.383.083.047-.05,2.35-3.309,5.118-7.243s5.059-7.181,5.093-7.217c.123-.132.729-.071,1.12.112a2.706,2.706,0,0,1,1.2,1.145c.107.28.106.3-.017.469-2.313,3.188-9.99,13.926-9.99,13.973a4.154,4.154,0,0,0,1.41.53,9.805,9.805,0,0,1,.961.322,2.938,2.938,0,0,1,1.045.977,3.06,3.06,0,0,0,.992.748,16.418,16.418,0,0,1,1.84,1.164l.38.288,2.309-1.35c1.27-.743,4.92-2.883,8.112-4.756l5.8-3.405.191.108a3.826,3.826,0,0,1,.543.448,2.1,2.1,0,0,1,.7,1.519l0,.418-7.9,4.471c-4.346,2.459-7.939,4.494-7.983,4.524-.062.04-.05.113.049.307a4.746,4.746,0,0,1,.426,2.363,4.049,4.049,0,0,1-.422,2.226,10.14,10.14,0,0,0-.362,1.022,22.138,22.138,0,0,1-5.1,8.478,11.988,11.988,0,0,1-4.139,2.907l-.894.425,0,2.186-.974.238a24.234,24.234,0,0,1-6.3.616c-.884-.006-1.725-.02-1.869-.032Z" transform="translate(-265.475 -37.295)"/>
        </g>
      </g>
      <g id="Group_2" data-name="Group 2" transform="translate(630 -67)">
        <text id="家庭-51" data-name="家庭" transform="translate(143 111)" font-size="41" font-family="YuGothicUI-Semibold, Yu Gothic UI" font-weight="600"><tspan x="0" y="0">家庭</tspan></text>
        <text id="料理-51" data-name="料理" transform="translate(225 111)" font-size="41" font-family="YuGothicUI-Semibold, Yu Gothic UI" font-weight="600"><tspan x="0" y="0">料理</tspan></text>
      </g>
      <g id="Group_2-2" data-name="Group 2" transform="translate(630 7)">
        <text id="家庭-52" data-name="家庭" transform="translate(143 111)" font-size="41" font-family="YuGothicUI-Semibold, Yu Gothic UI" font-weight="600"><tspan x="0" y="0">家庭</tspan></text>
        <text id="料理-52" data-name="料理" transform="translate(225 111)" font-size="41" font-family="YuGothicUI-Semibold, Yu Gothic UI" font-weight="600"><tspan x="0" y="0">料理</tspan></text>
      </g>
      <g id="Group_2-3" data-name="Group 2" transform="translate(630 81)">
        <text id="家庭-53" data-name="家庭" transform="translate(143 111)" font-size="41" font-family="YuGothicUI-Semibold, Yu Gothic UI" font-weight="600"><tspan x="0" y="0">家庭</tspan></text>
        <text id="料理-53" data-name="料理" transform="translate(225 111)" font-size="41" font-family="YuGothicUI-Semibold, Yu Gothic UI" font-weight="600"><tspan x="0" y="0">料理</tspan></text>
      </g>
      <g id="Group_2-4" data-name="Group 2" transform="translate(630 155)">
        <text id="家庭-54" data-name="家庭" transform="translate(143 111)" font-size="41" font-family="YuGothicUI-Semibold, Yu Gothic UI" font-weight="600"><tspan x="0" y="0">家庭</tspan></text>
        <text id="料理-54" data-name="料理" transform="translate(225 111)" font-size="41" font-family="YuGothicUI-Semibold, Yu Gothic UI" font-weight="600"><tspan x="0" y="0">料理</tspan></text>
      </g>
      <g id="Group_2-5" data-name="Group 2" transform="translate(630 229)">
        <text id="家庭-55" data-name="家庭" transform="translate(143 111)" font-size="41" font-family="YuGothicUI-Semibold, Yu Gothic UI" font-weight="600"><tspan x="0" y="0">家庭</tspan></text>
        <text id="料理-55" data-name="料理" transform="translate(225 111)" font-size="41" font-family="YuGothicUI-Semibold, Yu Gothic UI" font-weight="600"><tspan x="0" y="0">料理</tspan></text>
      </g>
      <g id="Group_2-6" data-name="Group 2" transform="translate(630 303)">
        <text id="家庭-56" data-name="家庭" transform="translate(143 111)" font-size="41" font-family="YuGothicUI-Semibold, Yu Gothic UI" font-weight="600"><tspan x="0" y="0">家庭</tspan></text>
        <text id="料理-56" data-name="料理" transform="translate(225 111)" font-size="41" font-family="YuGothicUI-Semibold, Yu Gothic UI" font-weight="600"><tspan x="0" y="0">料理</tspan></text>
      </g>
      <g id="Group_2-7" data-name="Group 2" transform="translate(630 377)">
        <text id="家庭-57" data-name="家庭" transform="translate(143 111)" font-size="41" font-family="YuGothicUI-Semibold, Yu Gothic UI" font-weight="600"><tspan x="0" y="0">家庭</tspan></text>
        <text id="料理-57" data-name="料理" transform="translate(225 111)" font-size="41" font-family="YuGothicUI-Semibold, Yu Gothic UI" font-weight="600"><tspan x="0" y="0">料理</tspan></text>
      </g>
      <g id="Group_2-8" data-name="Group 2" transform="translate(630 451)">
        <text id="家庭-58" data-name="家庭" transform="translate(143 111)" font-size="41" font-family="YuGothicUI-Semibold, Yu Gothic UI" font-weight="600"><tspan x="0" y="0">家庭</tspan></text>
        <text id="料理-58" data-name="料理" transform="translate(225 111)" font-size="41" font-family="YuGothicUI-Semibold, Yu Gothic UI" font-weight="600"><tspan x="0" y="0">料理</tspan></text>
      </g>
      <g id="Group_2-9" data-name="Group 2" transform="translate(630 525)">
        <text id="家庭-59" data-name="家庭" transform="translate(143 111)" font-size="41" font-family="YuGothicUI-Semibold, Yu Gothic UI" font-weight="600"><tspan x="0" y="0">家庭</tspan></text>
        <text id="料理-59" data-name="料理" transform="translate(225 111)" font-size="41" font-family="YuGothicUI-Semibold, Yu Gothic UI" font-weight="600"><tspan x="0" y="0">料理</tspan></text>
      </g>
      <g id="Group_2-10" data-name="Group 2" transform="translate(630 599)">
        <text id="家庭-60" data-name="家庭" transform="translate(143 111)" font-size="41" font-family="YuGothicUI-Semibold, Yu Gothic UI" font-weight="600"><tspan x="0" y="0">家庭</tspan></text>
        <text id="料理-60" data-name="料理" transform="translate(225 111)" font-size="41" font-family="YuGothicUI-Semibold, Yu Gothic UI" font-weight="600"><tspan x="0" y="0">料理</tspan></text>
      </g>
    </g>
  </g>
</svg>
