<svg xmlns="http://www.w3.org/2000/svg" xmlns:xlink="http://www.w3.org/1999/xlink" width="93" height="274" viewBox="0 0 93 274">
  <defs>
    <clipPath id="clip-vertical_logo">
      <rect width="93" height="274"/>
    </clipPath>
  </defs>
  <g id="vertical_logo" clip-path="url(#clip-vertical_logo)">
    <g id="Group_4" data-name="Group 4" transform="translate(-16 -150.5)">
      <text id="家_庭" data-name="家
庭" transform="translate(45 206)" font-size="35" font-family="YuGothicUI-Semibold, Yu Gothic UI" font-weight="600"><tspan x="0" y="0">家</tspan><tspan y="0" font-family="SegoeUI-Semibold, Segoe UI"></tspan><tspan x="0" y="47">庭</tspan></text>
      <text id="料_理" data-name="料
理" transform="translate(45 351)" font-size="35" font-family="YuGothicUI-Semibold, Yu Gothic UI" font-weight="600"><tspan x="0" y="0">料</tspan><tspan y="0" font-family="SegoeUI-Semibold, Segoe UI"></tspan><tspan x="0" y="47">理</tspan></text>
      <g id="drawing-1" transform="translate(-218.149 209.705)">
        <path id="Path_1" data-name="Path 1" d="M277.866,68.4a20.435,20.435,0,0,1-3.705-.666l-.251-.072-.026-1.6-.388-.152a9.841,9.841,0,0,1-3.461-2.286,17.808,17.808,0,0,1-3.277-4.961,8.13,8.13,0,0,1-.6-1.464c-.094-.33-.267-.9-.384-1.262a3.832,3.832,0,0,1-.07-2.776,5.817,5.817,0,0,1,2.9-2.909,8.267,8.267,0,0,1,1.658-.634c.6-.149.605-.151.641-.419a1.6,1.6,0,0,1,.846-1.12,7.666,7.666,0,0,1,2.059-.481c1.5-.215,1.447-.2,1.589-.466a2.218,2.218,0,0,1,1.99-1.069,3.392,3.392,0,0,1,1.185.229l.37.128.254-.112a4.975,4.975,0,0,1,1.356-.372,2.413,2.413,0,0,1,1.925.764,11.774,11.774,0,0,0,1.441,1.169c.184.108.227.117.28.061.035-.037,1.72-2.421,3.744-5.3s3.7-5.254,3.726-5.28c.09-.1.533-.052.82.082a1.98,1.98,0,0,1,.881.837c.078.205.078.218-.013.343-1.692,2.333-7.309,10.189-7.309,10.223a3.039,3.039,0,0,0,1.032.388,7.177,7.177,0,0,1,.7.236,2.149,2.149,0,0,1,.765.715,2.239,2.239,0,0,0,.726.547,12.013,12.013,0,0,1,1.346.852l.278.211,1.689-.988c.929-.543,3.6-2.109,5.935-3.479l4.246-2.491.14.079a2.8,2.8,0,0,1,.4.328,1.537,1.537,0,0,1,.516,1.112l0,.306-5.782,3.271c-3.18,1.8-5.809,3.288-5.841,3.31s-.037.082.036.224a3.473,3.473,0,0,1,.311,1.729,2.962,2.962,0,0,1-.308,1.629,7.41,7.41,0,0,0-.265.747,16.2,16.2,0,0,1-3.73,6.2,8.771,8.771,0,0,1-3.029,2.127l-.654.311v1.6l-.713.174a17.731,17.731,0,0,1-4.613.45c-.646,0-1.262-.014-1.367-.023Z" transform="translate(-4 25)"/>
      </g>
    </g>
  </g>
</svg>
