<svg xmlns="http://www.w3.org/2000/svg" xmlns:xlink="http://www.w3.org/1999/xlink" width="1926" height="532" viewBox="0 0 1926 532">
  <defs>
    <clipPath id="clip-web_logo_1">
      <rect width="1926" height="532"/>
    </clipPath>
  </defs>
  <g id="web_logo_1" clip-path="url(#clip-web_logo_1)">
    <rect width="1926" height="532" fill="#fff"/>
    <g id="Group_1" data-name="Group 1">
      <text id="家庭" transform="translate(143 391)" font-size="300" font-family="YuGothicUI-Regular, Yu Gothic UI"><tspan x="0" y="0">家庭</tspan></text>
      <text id="料理" transform="translate(1184 391)" font-size="300" font-family="YuGothicUI-Regular, Yu Gothic UI"><tspan x="0" y="0">料理</tspan></text>
      <g id="drawing-1" transform="translate(509.025 75.705)">
        <path id="Path_1" data-name="Path 1" d="M387.3,343.055a200.9,200.9,0,0,1-36.426-6.546l-2.465-.709-.258-15.722-3.814-1.49a96.748,96.748,0,0,1-34.027-22.477c-11.642-11.781-20.4-25.048-32.215-48.775a79.908,79.908,0,0,1-5.915-14.394c-.928-3.244-2.628-8.827-3.779-12.4-3.681-11.444-3.858-18.525-.684-27.291,3.932-10.861,14.695-21.652,28.527-28.6a81.277,81.277,0,0,1,16.3-6.236c5.926-1.47,5.953-1.487,6.306-4.118.575-4.276,4-8.807,8.313-11.011,3.36-1.715,9.991-3.265,20.239-4.732,14.737-2.109,14.228-1.96,15.617-4.579,3.4-6.42,11.021-10.511,19.569-10.511a33.347,33.347,0,0,1,11.653,2.255l3.635,1.254,2.5-1.105A48.908,48.908,0,0,1,413.7,122.2c6.82-.575,12.839,1.814,18.927,7.514,4.863,4.552,11.48,9.923,14.163,11.5,1.81,1.061,2.227,1.152,2.752.6.34-.361,16.905-23.8,36.811-52.095S522.742,38.062,522.983,37.8c.881-.946,5.244-.511,8.058.8,3.558,1.663,7.628,5.533,8.659,8.233.77,2.016.765,2.145-.125,3.372-16.637,22.934-71.858,100.169-71.858,100.5,0,.571,3.852,2.019,10.143,3.811a70.522,70.522,0,0,1,6.913,2.315c2.334,1.033,5.3,3.81,7.518,7.031,1.01,1.469,2.8,2.82,7.137,5.382,8.858,5.235,10.289,6.14,13.237,8.375L515.4,179.7,532,169.989c9.133-5.342,35.39-20.735,58.35-34.207L632.1,111.289l1.372.775a27.526,27.526,0,0,1,3.9,3.225,15.11,15.11,0,0,1,5.069,10.929l.032,3.006-56.844,32.157c-31.263,17.686-57.1,32.328-57.423,32.537-.443.29-.36.811.352,2.207,2.279,4.468,3.052,8.762,3.061,17,.009,8.156-.548,11.1-3.033,16.012a72.906,72.906,0,0,0-2.6,7.348c-6.6,21.364-18.407,41-36.667,60.981-8.026,8.783-15.933,14.335-29.775,20.91l-6.434,3.056L453.1,337.15l-7.009,1.709c-13.605,3.317-26.206,4.548-45.347,4.428-6.356-.04-12.405-.142-13.443-.229Z" transform="translate(0 0)"/>
      </g>
    </g>
  </g>
</svg>
